<svg width="901" height="652" viewBox="0 0 901 652" fill="none" xmlns="http://www.w3.org/2000/svg">
<path d="M702.2 147.2C791 232.4 880.4 342.8 866 438.8C851 534.8 732.2 615.8 621.2 641.6C510.2 667.4 407 637.4 287 597.2C167 557 30.2 506.6 4.99998 423.2C-20.2 339.8 66.8 222.8 157.4 137.6C248 51.8 342.8 -2.2 434 0.200003C525.2 2.6 612.8 62 702.2 147.2Z" fill="#7209B7" fill-opacity="0.08"/>
<g clip-path="url(#clip0)">
<path d="M88.7113 565.803V355.392C88.7254 333.551 97.4116 312.61 112.861 297.171C128.309 281.732 149.257 273.059 171.098 273.059H235.619" stroke="#7209B7" stroke-width="6" stroke-linecap="round" stroke-linejoin="round"/>
<path d="M328.555 382.284C328.555 382.284 335.586 403.341 336.616 413.535" stroke="#7209B7" stroke-width="8" stroke-linecap="round" stroke-linejoin="round"/>
<path d="M415.105 374.66C414.474 387.915 414.694 401.196 415.763 414.423" stroke="#7209B7" stroke-width="8" stroke-linecap="round" stroke-linejoin="round"/>
<path d="M481.291 307.787C483.744 310.316 484.691 345.323 506.844 344.908" stroke="#7209B7" stroke-width="6" stroke-linecap="round" stroke-linejoin="round"/>
<path d="M241.874 318.561C232.172 322.844 218.181 331.166 206.927 348.403C222.79 341.887 277.372 390.695 316.063 379.624C298.074 377.717 259.526 349.469 241.874 318.561Z" fill="#7209B7"/>
<path d="M273.398 240.689C226.45 263.037 225.805 294.448 241.762 321.76C233.386 323.081 213.117 334.495 170.221 395.066C108.465 482.262 111.427 563.623 231.55 565.696" stroke="#7209B7" stroke-width="6" stroke-linecap="round" stroke-linejoin="round"/>
<path d="M461.093 434.675V434.331C602.617 447.783 598.512 386.134 583.704 324.159L546.53 201.24C541.051 189.287 536.152 194.404 534.091 190.667C529.323 181.936 527.428 178.104 527.428 178.104C510.037 192.835 475.303 186.396 475.303 186.396C475.303 186.396 475.007 189.577 474.764 199.303C474.521 209.029 463.688 207.595 464.961 220.52L481.25 307.781L435.991 298.132C433.094 282.287 425.714 258.245 407.968 243.046" stroke="#7209B7" stroke-width="6" stroke-linecap="round" stroke-linejoin="round"/>
<path d="M467.704 565.383L466.969 514.715" stroke="#7209B7" stroke-width="6" stroke-linecap="round" stroke-linejoin="round"/>
<path d="M457.142 302.64C449.999 299.678 440.469 298.57 434.231 297.569C435.408 303.508 435.924 309.559 435.771 315.612C434.427 346.815 422.219 358.993 419.311 370.484C456.834 356.654 459.761 320.06 457.142 302.64Z" fill="#7209B7"/>
<path d="M400.901 485.034C400.113 491.632 398.597 494.404 383.161 502.341C379.222 504.367 370.924 508.762 359.806 514.336C362.11 542.821 363.36 563.771 363.36 563.771L409.626 564.417C409.626 564.417 408.347 516.8 407.346 468.425C404.781 473.614 401.375 481.018 400.901 485.034Z" fill="#FE7624"/>
<path d="M406.309 374.939C406.901 349.415 397.128 324.378 387.681 307.627C386.152 330.929 381.165 357.939 375.893 366.747C351.016 349.492 332.358 339.601 317.443 331.723C308.019 316.53 300.064 302.983 296.629 293.157C296.676 291.67 296.723 290.159 296.771 288.643L295.148 288.803C299.294 302.468 308.238 321.896 326.754 347.994C330.537 352.407 334.002 357.083 337.126 361.985C341.544 368.909 345.596 388.497 349.12 412.924C369.715 410.063 385.673 409.501 388.569 413.89L406.463 417.314C405.8 383.196 405.995 388.87 406.309 374.939Z" fill="#FE7624"/>
<path d="M430.132 461.293L402.607 466.926" stroke="#7209B7" stroke-width="6" stroke-linecap="round" stroke-linejoin="round"/>
<path d="M462.793 500.819C465.103 509.704 470.209 526.799 474.047 526.562C479.497 526.224 476.582 492.1 475.824 481.628C475.451 476.256 471.678 458.972 468.598 450.235C464.576 438.803 446.244 403.992 408.963 416.692L382.03 423.284" stroke="#7209B7" stroke-width="6" stroke-linecap="round" stroke-linejoin="round"/>
<path d="M431.619 454.351C431.027 460.411 427.473 473.152 432.111 481.521" stroke="#7209B7" stroke-width="6" stroke-linecap="round" stroke-linejoin="round"/>
<path d="M467.704 480.965C467.704 480.965 464.795 505.712 456.526 507.619C448.258 509.526 447.73 502.549 447.73 502.549" stroke="#7209B7" stroke-width="6" stroke-linecap="round" stroke-linejoin="round"/>
<path d="M457.782 480.118C457.782 480.118 453.316 501.933 444.923 503.218C436.53 504.504 436.53 497.55 436.53 497.55" stroke="#7209B7" stroke-width="6" stroke-linecap="round" stroke-linejoin="round"/>
<path d="M445.539 478.773C445.539 478.773 439.74 504.924 430.429 495.009C421.117 485.093 422.101 480.041 422.101 480.041C422.101 480.041 426.579 472.856 433.757 484.329" stroke="#7209B7" stroke-width="6" stroke-linecap="round" stroke-linejoin="round"/>
<path d="M401.274 480.87C380.336 463.882 373.234 421.098 382.083 411.734C382.439 408.772 389.238 413.777 393.337 414.233C403.229 415.335 407.494 415.637 407.494 415.637C403.484 427.969 407.95 442.884 412.54 453.493C414.509 458.18 416.789 462.732 419.364 467.116C418.576 467.513 415.395 469.082 407.831 472.399C403.472 474.336 402.548 477.606 401.274 480.87Z" fill="#7209B7"/>
<path d="M235.619 416.626C244.865 413.564 269.761 409.323 277.354 426.856" stroke="#7209B7" stroke-width="6" stroke-linecap="round" stroke-linejoin="round"/>
<path d="M235.619 436.682C235.619 436.682 379.287 399.781 388.575 413.866L410.39 462.644C410.39 462.644 401.683 478.429 400.913 485.034C400.143 491.638 398.609 494.404 383.173 502.342C367.737 510.279 287.092 556.604 229.287 565.696" stroke="#7209B7" stroke-width="6" stroke-linecap="round" stroke-linejoin="round"/>
<path d="M297.707 260.146C297.393 269.387 296.978 281.897 296.629 293.145C300.064 302.971 308.019 316.518 317.443 331.711C332.358 339.589 350.998 349.481 375.893 366.735C381.224 357.927 386.152 330.917 387.681 307.615" stroke="#7209B7" stroke-width="6" stroke-linecap="round" stroke-linejoin="round"/>
<path d="M290.125 216.788C285.665 217.185 268.973 219.851 272.509 237.52C275.317 251.575 288.164 250.326 295.859 248.181" stroke="#7209B7" stroke-width="6" stroke-linecap="round" stroke-linejoin="round"/>
<path d="M407.672 183.689C410.835 207.815 409.372 233.711 406.896 252.991" stroke="#7209B7" stroke-width="6" stroke-linecap="round" stroke-linejoin="round"/>
<path d="M406.896 252.967C405.859 261.082 404.639 268.018 403.508 273.142" stroke="#7209B7" stroke-width="6" stroke-linecap="round" stroke-linejoin="round"/>
<path d="M406.896 250.42C406.896 250.42 405.225 286.392 389.517 305.021C373.808 323.649 340.597 318.437 325.001 307.236C309.405 296.035 306.846 290.693 303.239 278.71C299.632 266.727 290.107 222.054 290.107 222.054" stroke="#7209B7" stroke-width="6" stroke-linecap="round" stroke-linejoin="round"/>
<path d="M370.018 278.781C370.018 278.781 379.702 276.856 383.641 280.706L370.018 278.781Z" fill="white"/>
<path d="M370.018 278.781C370.018 278.781 379.702 276.856 383.641 280.706" stroke="#7209B7" stroke-width="6" stroke-linecap="round" stroke-linejoin="round"/>
<path d="M382.362 233.829L385.963 265.169L374.91 262.344" stroke="#7209B7" stroke-width="6" stroke-linecap="round" stroke-linejoin="round"/>
<path d="M393.93 242.306C395.703 242.306 397.14 240.081 397.14 237.336C397.14 234.591 395.703 232.366 393.93 232.366C392.157 232.366 390.719 234.591 390.719 237.336C390.719 240.081 392.157 242.306 393.93 242.306Z" fill="#7209B7"/>
<path d="M363.016 241.761C364.789 241.761 366.227 239.536 366.227 236.791C366.227 234.046 364.789 231.821 363.016 231.821C361.243 231.821 359.806 234.046 359.806 236.791C359.806 239.536 361.243 241.761 363.016 241.761Z" fill="#7209B7"/>
<path d="M349.091 210.865C350.712 208.789 352.86 207.185 355.311 206.222C357.762 205.258 360.427 204.969 363.028 205.386" stroke="#7209B7" stroke-width="6" stroke-linecap="round" stroke-linejoin="round"/>
<path d="M392.526 204.841C392.526 204.841 401.411 202.531 403.656 209.811" stroke="#7209B7" stroke-width="6" stroke-linecap="round" stroke-linejoin="round"/>
<path d="M428.065 178.607C427.283 176.321 428.172 173.537 429.807 170.735L429.38 170.255L427.372 175.882C427.372 175.882 421.088 178.589 419.015 170.552C418.375 168.093 419.826 165.096 422.136 162.129L422.071 162.052C413.334 164.077 396.263 167.383 394.723 163.947C392.55 159.084 423.35 146.177 432.733 142.031C437.542 139.928 454.187 135.362 463.154 134.058C469.103 133.302 475.12 133.236 481.084 133.863C481.777 128.351 480.703 122.762 478.016 117.9C475.108 112.533 469.03 104.555 463.634 101.694C410.153 73.3276 384.062 121.241 384.062 121.241C384.062 121.241 376.533 100.693 352.165 99.9584C347.222 99.8253 342.304 100.702 337.712 102.535C333.119 104.369 328.949 107.12 325.457 110.62C305.502 130.623 318.805 153.268 318.805 153.268C318.805 153.268 309.512 148.529 296.978 154.577C282.004 161.821 274.47 178.779 278.361 194.955C282.508 212.133 290.125 228.487 290.125 228.487C338.79 236.021 351.229 188.238 344.062 182.072C354.854 190.057 374.27 195.405 407.156 192.1C414.685 191.318 423.919 188.357 433.319 183.867C431.501 183.618 429.386 182.434 428.065 178.607Z" fill="#7209B7"/>
<path d="M473.716 174.023L481.457 205.185L525.437 192.177" stroke="#7209B7" stroke-width="6" stroke-linecap="round" stroke-linejoin="round"/>
<path d="M422.095 162.075C413.358 164.101 396.287 167.406 394.747 163.971C392.573 159.108 423.374 146.201 432.756 142.055C437.566 139.952 454.21 135.385 463.178 134.082C474.877 132.394 517.405 131.316 523.299 169.278L529.595 192.752L487.766 205.155" stroke="#7209B7" stroke-width="6" stroke-linecap="round" stroke-linejoin="round"/>
<path d="M485.55 168.028C480.593 171.298 461.988 180.1 452.647 179.875" stroke="#7209B7" stroke-width="6" stroke-linecap="round" stroke-linejoin="round"/>
<path d="M437.027 148.849C437.027 148.849 416.959 162.561 419.038 170.587C421.117 178.613 427.396 175.918 427.396 175.918" stroke="#7209B7" stroke-width="6" stroke-linecap="round" stroke-linejoin="round"/>
<path d="M442.245 157.041C442.245 157.041 425.418 170.771 428.089 178.607C430.76 186.444 436.82 183.281 436.82 183.281" stroke="#7209B7" stroke-width="6" stroke-linecap="round" stroke-linejoin="round"/>
<path d="M448.951 167.033C448.951 167.033 428.977 183.873 441.754 187.433C454.53 190.993 458.457 187.865 458.457 187.865C458.457 187.865 462.639 180.757 449.478 179.727" stroke="#7209B7" stroke-width="6" stroke-linecap="round" stroke-linejoin="round"/>
<path d="M469.469 208.596C477.874 219.738 534.82 211.345 544.19 196.951C539.7 190.791 536.123 194.304 534.121 190.667C529.353 181.936 527.457 178.104 527.457 178.104C517.565 186.485 502.052 188.013 490.514 187.776C485.426 187.731 480.347 187.349 475.309 186.633C475.238 187.516 474.995 191.052 474.788 199.309C474.687 204.089 472.01 206.18 469.469 208.596Z" fill="#7209B7"/>
<path d="M780.243 400.361H549.942C548.474 400.361 547.049 400.856 545.897 401.766C544.746 402.677 543.936 403.95 543.598 405.378L511.583 540.914H428.101C428.101 540.914 423.475 564.808 450.455 564.808H744.473C745.941 564.809 747.366 564.314 748.517 563.403C749.669 562.492 750.479 561.22 750.816 559.791L786.581 408.375C786.807 407.419 786.814 406.424 786.601 405.464C786.388 404.505 785.96 403.606 785.351 402.835C784.741 402.064 783.965 401.441 783.08 401.013C782.196 400.584 781.226 400.362 780.243 400.361Z" fill="#7209B7"/>
<path d="M761.247 457.929C757.808 457.929 754.406 457.216 751.256 455.835C748.106 454.454 745.277 452.435 742.947 449.905C740.617 447.375 738.837 444.39 737.719 441.137C736.601 437.885 736.17 434.436 736.453 431.008C737.341 420.275 737.46 413.665 738.567 408.683C740.084 401.836 753.375 392.412 768.776 381.016C776.875 375.069 782.508 369.531 785.675 364.401C788.842 359.272 790.421 352.91 790.413 345.317C790.413 335.946 787.438 328.572 781.487 323.193C775.536 317.815 768.329 315.122 759.867 315.114C743.057 315.114 731.769 324.017 726.004 341.822C724.107 347.552 720.251 352.43 715.114 355.6C709.978 358.769 703.888 360.027 697.916 359.153C694.09 358.603 690.439 357.192 687.238 355.026C684.036 352.861 681.367 349.998 679.432 346.652C677.497 343.306 676.346 339.565 676.065 335.71C675.785 331.855 676.382 327.986 677.813 324.396C683.313 310.48 691.199 299.094 701.47 290.236C718.493 275.555 739.288 268.212 763.853 268.208C788.921 268.208 809.936 275.424 826.9 289.857C843.864 304.29 852.354 322.585 852.37 344.742C852.37 372.214 838.255 395.192 810.025 413.677C797.74 421.78 790.303 428.11 787.712 432.667C786.712 434.53 785.974 436.524 785.521 438.59C784.241 444.068 781.151 448.954 776.751 452.458C772.35 455.962 766.896 457.879 761.271 457.9L761.247 457.929ZM764.612 532.183H762.337C754.732 532.183 747.438 529.162 742.059 523.785C736.681 518.407 733.658 511.114 733.657 503.508C733.657 499.742 734.399 496.013 735.84 492.533C737.281 489.053 739.394 485.892 742.057 483.228C744.72 480.565 747.882 478.453 751.362 477.011C754.841 475.57 758.571 474.828 762.337 474.828H764.612C768.378 474.828 772.107 475.57 775.586 477.011C779.066 478.453 782.227 480.566 784.89 483.229C787.552 485.892 789.664 489.054 791.105 492.533C792.546 496.013 793.287 499.742 793.286 503.508C793.286 511.113 790.265 518.407 784.887 523.784C779.51 529.162 772.217 532.183 764.612 532.183Z" fill="#FE7624"/>
<path d="M176.257 215.39C175.492 215.721 174.668 215.89 173.835 215.886C173.002 215.882 172.179 215.705 171.418 215.368C170.656 215.03 169.973 214.538 169.412 213.923C168.85 213.308 168.422 212.584 168.154 211.795C167.508 210.105 166.948 208.383 166.477 206.636C166.158 204.972 168.195 201.601 170.529 197.585C171.569 195.956 172.3 194.149 172.685 192.254C172.866 190.646 172.595 189.02 171.903 187.557C171.552 186.623 171.003 185.777 170.292 185.077C169.581 184.378 168.726 183.841 167.786 183.506C165.958 182.882 163.96 182.986 162.207 183.796C158.471 185.415 156.821 188.479 157.255 192.989C157.384 194.443 156.997 195.896 156.162 197.094C155.327 198.292 154.097 199.158 152.688 199.54C151.785 199.786 150.838 199.824 149.918 199.651C148.999 199.478 148.13 199.098 147.378 198.541C146.626 197.984 146.01 197.264 145.577 196.435C145.143 195.605 144.903 194.688 144.875 193.753C144.714 190.354 145.389 186.968 146.842 183.891C149.211 178.994 153.123 175.363 158.576 172.998C164.144 170.581 169.506 170.161 174.663 171.736C177.105 172.423 179.357 173.657 181.251 175.344C183.144 177.032 184.629 179.128 185.592 181.474C188.241 187.575 187.319 194.037 182.826 200.861C180.875 203.842 179.83 205.963 179.692 207.222C179.652 207.735 179.682 208.251 179.781 208.756C180.025 210.096 179.809 211.478 179.17 212.68C178.53 213.882 177.504 214.833 176.257 215.379V215.39ZM184.146 231.555L183.643 231.774C182.807 232.137 181.907 232.332 180.996 232.347C180.085 232.362 179.179 232.197 178.331 231.862C177.484 231.527 176.71 231.029 176.056 230.394C175.401 229.76 174.877 229.003 174.515 228.167C173.781 226.48 173.747 224.571 174.42 222.86C175.093 221.148 176.418 219.774 178.105 219.039L178.608 218.82C179.444 218.457 180.344 218.262 181.255 218.247C182.167 218.232 183.072 218.397 183.92 218.732C184.767 219.067 185.541 219.566 186.196 220.2C186.85 220.834 187.374 221.591 187.736 222.427C188.47 224.114 188.504 226.023 187.831 227.734C187.158 229.446 185.833 230.82 184.146 231.555Z" fill="#FE7624"/>
<path d="M207.768 139.549C206.633 139.489 205.522 139.193 204.507 138.681C203.492 138.169 202.594 137.452 201.87 136.575C201.146 135.698 200.613 134.681 200.302 133.587C199.992 132.493 199.912 131.347 200.068 130.22C200.56 126.696 200.72 124.522 201.176 122.899C201.768 120.672 206.341 117.805 211.642 114.334C214.406 112.522 216.365 110.798 217.518 109.163C218.721 107.314 219.383 105.167 219.431 102.962C219.601 99.8696 218.754 97.3838 216.89 95.5042C215.039 93.6264 212.536 92.5321 209.901 92.4478C204.372 92.1398 200.491 94.8684 198.256 100.634C197.524 102.488 196.164 104.025 194.412 104.976C192.661 105.927 190.631 106.231 188.678 105.834C187.424 105.584 186.243 105.052 185.225 104.278C184.207 103.504 183.378 102.509 182.801 101.368C182.224 100.227 181.915 98.9694 181.895 97.6908C181.876 96.4123 182.147 95.146 182.689 93.9878C184.578 89.7493 187.478 86.0393 191.136 83.1839C197.012 78.6664 203.997 76.6249 212.092 77.0592C220.353 77.5173 227.149 80.2815 232.48 85.3518C237.811 90.422 240.273 96.6079 239.866 103.909C239.365 112.964 234.291 120.277 224.644 125.849C220.45 128.301 217.883 130.252 216.943 131.701C216.581 132.302 216.302 132.95 216.114 133.626C215.592 135.408 214.484 136.962 212.97 138.037C211.455 139.111 209.623 139.644 207.768 139.549ZM207.525 164.072H206.773C204.267 163.931 201.919 162.802 200.244 160.932C198.569 159.061 197.705 156.603 197.841 154.097C197.905 152.852 198.213 151.631 198.749 150.506C199.285 149.38 200.038 148.371 200.965 147.537C201.892 146.703 202.974 146.06 204.149 145.645C205.325 145.229 206.571 145.05 207.816 145.117L208.568 145.159C209.814 145.228 211.034 145.543 212.157 146.085C213.281 146.627 214.287 147.386 215.117 148.318C215.947 149.249 216.584 150.336 216.993 151.514C217.402 152.693 217.575 153.941 217.5 155.187C217.347 157.685 216.213 160.021 214.344 161.685C212.476 163.35 210.024 164.208 207.525 164.072Z" fill="#FE7624"/>
<path d="M2.77698 565.697H899.223" stroke="#7209B7" stroke-width="6" stroke-linecap="round" stroke-linejoin="round"/>
</g>
<defs>
<clipPath id="clip0">
<rect width="900" height="490.58" fill="white" transform="translate(1 77)"/>
</clipPath>
</defs>
</svg>
