<svg width="1920" height="967" viewBox="0 0 1920 967" fill="none" xmlns="http://www.w3.org/2000/svg">
<g opacity="0.05" clip-path="url(#clip0)">
<path d="M277.481 258.643L110.379 226.161L77.8981 393.263L245 425.744L277.481 258.643Z" fill="#FEBA91"/>
<path d="M127.276 280.939L245.679 306.43" stroke="#7209B7" stroke-width="6" stroke-linecap="round" stroke-linejoin="round"/>
<path d="M123.034 303.109L237.298 327.719" stroke="#7209B7" stroke-width="6" stroke-linecap="round" stroke-linejoin="round"/>
<path d="M115.626 325.838L203.18 344.687" stroke="#7209B7" stroke-width="6" stroke-linecap="round" stroke-linejoin="round"/>
<path d="M155.986 306.45L0.00585938 374.628L68.1841 530.608L224.164 462.43L155.986 306.45Z" fill="#FEBA91"/>
<path d="M59.8564 415.48L133.438 385.214" stroke="#7209B7" stroke-width="6" stroke-linecap="round" stroke-linejoin="round"/>
<path d="M74.7363 442.087L109.192 427.92" stroke="#7209B7" stroke-width="6" stroke-linecap="round" stroke-linejoin="round"/>
<path d="M90.615 326.564L88.8118 335.84L153.974 311.581L204.698 417.906L213.986 419.722L157.996 301.332L90.615 326.564Z" fill="white"/>
<path d="M1083.84 0H1919.97V478.592C1919.97 500.478 1911.28 521.467 1895.8 536.943C1880.33 552.418 1859.34 561.112 1837.45 561.112H1166.36C1144.47 561.112 1123.48 552.418 1108.01 536.943C1092.53 521.467 1083.84 500.478 1083.84 478.592V0Z" fill="#5D21D1"/>
<path d="M1543.24 360.358C1543.24 360.358 1512.11 368.376 1505.23 339.524C1505.23 339.524 1529.36 328.925 1543.24 360.358Z" fill="white"/>
<path d="M1471.52 285.856C1475.06 287.973 1478.84 289.658 1482.78 290.876C1480.82 293.559 1479.42 296.612 1478.68 299.85C1477.94 303.088 1477.86 306.443 1478.44 309.713C1478.97 313.276 1480.32 316.669 1482.37 319.626C1484.43 322.583 1487.14 325.025 1490.3 326.759C1488.78 336.229 1486.06 349.876 1482.88 354.689C1481.32 357.037 1482.19 360.579 1484.83 362.577C1487.46 364.575 1490.85 364.289 1492.4 361.941C1497 354.975 1500.11 337.76 1501.48 328.627C1501.69 328.627 1501.89 328.627 1502.08 328.549C1513.02 326.447 1520.14 314.629 1518.01 302.136C1517.35 298.295 1515.79 294.663 1513.46 291.538C1525.81 288.467 1536.74 281.284 1544.46 271.17C1561.25 248.766 1555.81 219.033 1532.31 204.75C1508.8 190.467 1476.15 197.044 1459.36 219.435C1442.57 241.826 1448.02 271.56 1471.52 285.856Z" fill="white"/>
<path d="M1353.8 504.266L1234.76 481.122L1199.01 408.41L1219.18 304.679L1386.29 337.163L1353.8 504.266Z" fill="#FEBA91"/>
<path d="M1245.21 351.433L1342.85 368.778" stroke="white" stroke-width="6" stroke-linecap="round" stroke-linejoin="round"/>
<path d="M1242.16 368.596L1339.8 385.941" stroke="white" stroke-width="6" stroke-linecap="round" stroke-linejoin="round"/>
<path d="M1239.37 386.602L1297.45 396.916" stroke="white" stroke-width="6" stroke-linecap="round" stroke-linejoin="round"/>
<path d="M1237.76 478.411L1251.43 416.933L1203.3 407.177" stroke="white" stroke-width="6" stroke-linecap="round" stroke-linejoin="round"/>
<path d="M1083.84 90.8096H1054.17C1054.17 90.8096 1020.71 426.338 796.53 385.072C572.347 343.805 101.901 266.799 85.3999 585.864C68.8985 904.93 321.946 731.666 321.946 731.666" stroke="#5D21D1" stroke-width="6" stroke-linecap="round" stroke-linejoin="round"/>
<path d="M1077.99 79.5363H1056.45C1053.22 79.5363 1050.6 82.1557 1050.6 85.387V96.6085C1050.6 99.8397 1053.22 102.459 1056.45 102.459H1077.99C1081.22 102.459 1083.84 99.8397 1083.84 96.6085V85.387C1083.84 82.1557 1081.22 79.5363 1077.99 79.5363Z" fill="#FE7624"/>
<path d="M342.599 727.774C353.612 718.693 357.349 661.924 311.023 686.91C264.697 711.895 298.919 748.076 321.648 738.723C344.376 729.369 342.599 727.774 342.599 727.774Z" fill="#FE7624"/>
<path d="M474.636 346.296C474.636 346.296 -74.1136 594.076 189.922 909.743" stroke="#5D21D1" stroke-width="7.33" stroke-linecap="round" stroke-linejoin="round"/>
<path d="M195.176 919.317C207.176 927.101 262.427 913.791 224.78 877C187.133 840.209 162.783 883.655 178.48 902.569C194.177 921.484 195.176 919.317 195.176 919.317Z" fill="#FE7624"/>
<path d="M525.035 332.078H472.768C463.274 332.078 455.579 339.773 455.579 349.267C455.579 358.76 463.274 366.456 472.768 366.456H525.035C534.528 366.456 542.224 358.76 542.224 349.267C542.224 339.773 534.528 332.078 525.035 332.078Z" fill="#FE7624"/>
<path d="M1773.86 629.886L1721.26 613.421C1694.47 605.036 1665.95 619.955 1657.57 646.745L1605.57 812.879C1597.18 839.669 1612.1 868.184 1638.89 876.569L1691.5 893.034C1718.29 901.419 1746.8 886.499 1755.19 859.71L1807.19 693.575C1815.57 666.786 1800.65 638.271 1773.86 629.886Z" fill="white" stroke="#7209B7" stroke-width="6" stroke-linecap="round" stroke-linejoin="round"/>
<path d="M1675.02 795.103C1675.02 795.103 1686.7 794.843 1686.7 805.611C1686.74 805.611 1677.38 807.362 1675.02 795.103Z" fill="#7209B7"/>
<path d="M1694.25 827.366C1693.17 826.325 1691.97 825.419 1690.68 824.668C1691.59 823.879 1692.34 822.914 1692.87 821.83C1693.4 820.747 1693.7 819.568 1693.77 818.363C1693.87 817.061 1693.68 815.752 1693.2 814.537C1692.71 813.322 1691.96 812.235 1690.99 811.358C1692.29 808.128 1694.39 803.574 1695.92 802.095C1696.28 801.691 1696.48 801.166 1696.48 800.623C1696.48 800.079 1696.28 799.555 1695.92 799.15C1695.77 798.936 1695.58 798.754 1695.36 798.616C1695.14 798.478 1694.9 798.387 1694.64 798.349C1694.38 798.312 1694.12 798.327 1693.87 798.396C1693.62 798.465 1693.39 798.585 1693.18 798.748C1690.99 800.824 1688.46 806.662 1687.22 809.775H1687C1682.96 809.619 1679.47 813.213 1679.21 817.805C1679.13 819.219 1679.39 820.632 1679.95 821.931C1675.33 821.994 1670.87 823.627 1667.3 826.562C1659.52 833.048 1658.99 844.062 1666.12 851.055C1669.76 854.44 1674.5 856.389 1679.47 856.542C1684.44 856.695 1689.29 855.04 1693.13 851.885C1700.82 845.321 1701.36 834.359 1694.25 827.366Z" fill="#7209B7"/>
<path d="M925.189 511.378L581.855 566.866L647.333 972.014L990.667 916.525L925.189 511.378Z" fill="#7209B7"/>
<path d="M794.795 472.979L497.845 589.592L635.46 940.024L932.41 823.411L794.795 472.979Z" fill="white" stroke="#7209B7" stroke-width="6" stroke-linecap="round" stroke-linejoin="round"/>
<path d="M538.293 636.835L483.392 658.396" stroke="#7209B7" stroke-width="9.08" stroke-linecap="round" stroke-linejoin="round"/>
<path d="M561.125 694.992L506.237 716.552" stroke="#7209B7" stroke-width="9.08" stroke-linecap="round" stroke-linejoin="round"/>
<path d="M583.97 753.162L529.07 774.71" stroke="#7209B7" stroke-width="9.08" stroke-linecap="round" stroke-linejoin="round"/>
<path d="M606.803 811.319L551.915 832.88" stroke="#7209B7" stroke-width="9.08" stroke-linecap="round" stroke-linejoin="round"/>
<path d="M629.648 869.476L574.76 891.037" stroke="#7209B7" stroke-width="9.08" stroke-linecap="round" stroke-linejoin="round"/>
<path d="M599.032 662.145L704.189 620.852" stroke="#FE7624" stroke-width="6" stroke-linecap="round" stroke-linejoin="round"/>
<path d="M648.393 664.039L753.551 622.746" stroke="#FE7624" stroke-width="6" stroke-linecap="round" stroke-linejoin="round"/>
<path d="M606.699 680.423L628.104 672.017" stroke="#FE7624" stroke-width="6" stroke-linecap="round" stroke-linejoin="round"/>
<path d="M632.566 746.286L669.033 731.964" stroke="#FE7624" stroke-width="6" stroke-linecap="round" stroke-linejoin="round"/>
<path d="M624.316 725.283L689.31 699.766" stroke="#FE7624" stroke-width="6" stroke-linecap="round" stroke-linejoin="round"/>
<path d="M615.066 701.699L651.52 687.39" stroke="#FE7624" stroke-width="6" stroke-linecap="round" stroke-linejoin="round"/>
<path d="M667.632 681.059L728.267 657.254" stroke="#FE7624" stroke-width="6" stroke-linecap="round" stroke-linejoin="round"/>
<path d="M806.428 589.004L799.682 613.808L800.305 848.836L813.926 848.797L813.304 613.782L806.428 589.004Z" fill="#FE7624"/>
<path d="M800.279 840.638L824.914 840.573L823.734 783.674" stroke="#5D21D1" stroke-width="6.05" stroke-linecap="round" stroke-linejoin="round"/>
<path d="M810.798 626.419L803.326 626.376C800.131 626.358 797.525 628.933 797.507 632.129L797.179 689.052C797.161 692.248 799.736 694.853 802.931 694.871L810.404 694.914C813.599 694.933 816.204 692.357 816.223 689.162L816.551 632.238C816.569 629.043 813.994 626.438 810.798 626.419Z" fill="#5D21D1"/>
<path d="M807.453 760.011L806.623 790.394" stroke="#5D21D1" stroke-width="6.05" stroke-linecap="round" stroke-linejoin="round"/>
<path d="M739.164 534.959L735.778 560.451L767.756 793.287L781.248 791.432L749.283 558.596L739.164 534.959Z" fill="#FE7624"/>
<path d="M606.29 180.764L698.235 168.529L704.633 216.61L612.688 228.846C606.594 229.657 600.427 228.014 595.544 224.278C590.66 220.541 587.462 215.019 586.651 208.924L586.373 206.841C585.562 200.746 587.206 194.579 590.942 189.696C594.678 184.813 600.201 181.614 606.295 180.803L606.29 180.764Z" fill="white" stroke="#7209B7" stroke-width="6" stroke-linecap="round" stroke-linejoin="round"/>
<path d="M801.849 293.691C868.874 293.691 923.209 239.356 923.209 172.331C923.209 105.305 868.874 50.9701 801.849 50.9701C734.823 50.9701 680.488 105.305 680.488 172.331C680.488 239.356 734.823 293.691 801.849 293.691Z" fill="white" stroke="#7209B7" stroke-width="6" stroke-linecap="round" stroke-linejoin="round"/>
<path d="M801.849 258.146C849.243 258.146 887.664 219.725 887.664 172.331C887.664 124.936 849.243 86.5155 801.849 86.5155C754.454 86.5155 716.033 124.936 716.033 172.331C716.033 219.725 754.454 258.146 801.849 258.146Z" fill="#FE7624"/>
<path d="M1465.2 777.599L1464.93 646.768C1464.9 635.627 1455.85 626.615 1444.71 626.638L1112.09 627.335C1100.95 627.358 1091.94 636.408 1091.96 647.549L1092.23 778.38C1092.26 789.521 1101.31 798.534 1112.45 798.51L1445.07 797.814C1456.21 797.79 1465.22 788.74 1465.2 777.599Z" fill="#FE7624"/>
<path d="M1451.8 769.962V741.201H1445.69C1444.72 741.187 1443.79 740.789 1443.11 740.094C1442.43 739.398 1442.06 738.462 1442.07 737.491L1441.97 684.302C1441.96 683.822 1442.04 683.344 1442.22 682.897C1442.39 682.45 1442.66 682.042 1442.99 681.696C1443.32 681.35 1443.72 681.074 1444.16 680.882C1444.6 680.69 1445.08 680.587 1445.56 680.579H1451.66V651.818C1451.71 647.871 1450.19 644.064 1447.44 641.235C1444.68 638.406 1440.92 636.786 1436.97 636.731L1119.22 637.38C1117.25 637.4 1115.31 637.809 1113.51 638.583C1111.7 639.357 1110.07 640.48 1108.7 641.889C1107.33 643.297 1106.25 644.963 1105.53 646.79C1104.81 648.616 1104.45 650.568 1104.49 652.532L1104.72 770.675C1104.7 772.63 1105.06 774.572 1105.78 776.388C1106.5 778.205 1107.58 779.861 1108.94 781.262C1110.3 782.664 1111.93 783.782 1113.73 784.554C1115.52 785.327 1117.45 785.737 1119.41 785.762L1437.17 785.127C1441.12 785.055 1444.88 783.417 1447.62 780.574C1450.37 777.73 1451.87 773.913 1451.8 769.962V769.962Z" stroke="white" stroke-width="6" stroke-linecap="round" stroke-linejoin="round"/>
</g>
<defs>
<clipPath id="clip0">
<rect width="1920" height="966.318" fill="white"/>
</clipPath>
</defs>
</svg>
