<svg width="800" height="510" viewBox="0 0 800 510" fill="none" xmlns="http://www.w3.org/2000/svg">
<path d="M691.6 259.201C691.6 386.4 560.8 509.4 412 509.4C262.6 509.4 95.7999 386.4 95.7999 259.201C95.7999 132.601 262.6 0.600586 412 0.600586C560.8 0.600586 691.6 132.601 691.6 259.201Z" fill="#7209B7" fill-opacity="0.08"/>
<g clip-path="url(#clip0)">
<path d="M586.444 146.9H279.445C273.838 146.9 269.292 151.446 269.292 157.054V340.743C269.292 346.351 273.838 350.896 279.445 350.896H586.444C592.052 350.896 596.598 346.351 596.598 340.743V157.054C596.598 151.446 592.052 146.9 586.444 146.9Z" fill="white" stroke="#7209B7" stroke-width="6" stroke-linecap="round" stroke-linejoin="round"/>
<path d="M273.226 149.036L426.963 268.606C428.667 269.962 430.781 270.701 432.959 270.701C435.137 270.701 437.251 269.962 438.955 268.606L592.692 149.036" stroke="#7209B7" stroke-width="6" stroke-linecap="round" stroke-linejoin="round"/>
<path d="M272.809 313.023L366.601 221.807" stroke="#7209B7" stroke-width="6" stroke-linecap="round" stroke-linejoin="round"/>
<path d="M500.122 221.807L595.713 314.771" stroke="#7209B7" stroke-width="6" stroke-linecap="round" stroke-linejoin="round"/>
<path d="M184.454 217.792L221.185 211.014C221.185 211.014 204.624 169.194 235.153 119.717C265.683 70.2403 319.745 87.3894 351.588 109.764C351.588 109.764 313.681 48.2999 266.122 61.4344C218.564 74.5689 195.362 103.762 186.03 153.844C176.699 203.927 184.454 217.792 184.454 217.792Z" fill="white" stroke="#7209B7" stroke-width="6" stroke-linecap="round" stroke-linejoin="round"/>
<path d="M164.113 248.875C162.508 233.594 169.504 218.678 195.681 210.117C221.859 201.557 248.265 219.9 249.778 225.496C251.292 231.092 288.234 330.743 247.346 340.583C206.457 350.422 173.284 316.17 169.892 297.713C166.5 279.256 164.113 248.875 164.113 248.875Z" fill="white" stroke="#7209B7" stroke-width="6" stroke-linecap="round" stroke-linejoin="round"/>
<path d="M238.648 254.209C236.364 247.51 221.876 229.282 208.953 240.869C196.03 252.456 205.527 299.432 232.138 294.738C258.75 290.043 238.648 254.209 238.648 254.209Z" stroke="#7209B7" stroke-width="6" stroke-linecap="round" stroke-linejoin="round"/>
<path d="M355.203 199.455C341.343 191.569 309.626 181.278 291.774 188.245C273.923 195.212 240.864 212.356 232.955 285.898C225.045 359.439 312.373 347.75 312.373 347.75L355.203 199.455Z" fill="white" stroke="#7209B7" stroke-width="6" stroke-linecap="round" stroke-linejoin="round"/>
<path d="M375.11 209.866C376.201 204.087 378.759 191.049 378.759 191.049C382.123 174.528 385.252 159.07 384.613 143.342C383.305 111.014 362.758 82.3697 340.252 70.4459C291.426 44.5709 259.835 55.1299 259.835 55.1299C155.124 90.536 174.129 205.891 176.391 217.821C155.37 228.031 146.421 242.16 148.003 261.924C149.225 272.706 147.797 325.381 174.478 340.331C201.158 355.282 227.821 350.999 245.29 341.062C205.469 349.189 176.865 312.452 173.53 294.304C170.143 275.847 167.819 248.533 167.819 248.533C166.523 236.209 172.022 223.16 190.388 213.869L190.296 212.955H190.33C190.296 212.767 190.268 212.573 190.239 212.384L190.142 211.442L190.102 211.488C187.538 194.51 183.369 150.081 204.242 114.732C230.99 69.4066 261.828 66.8025 261.828 66.8025C320.533 58.1394 342.068 122.036 340.738 156.808C339.533 188.034 322.007 195.458 318.466 196.651C314.052 196.15 309.588 196.943 305.617 198.936C292.78 201.22 271.81 229.745 259.361 258.326C259.361 258.406 259.407 258.492 259.424 258.578L259.121 258.875C253.29 272.375 249.413 285.84 249.179 296.485C247.855 302.104 248.022 307.972 249.665 313.506C251.308 319.041 254.369 324.05 258.544 328.036L264.078 326.894C263.537 328.311 262.852 329.667 262.033 330.943C263.503 332 265.055 332.936 266.676 333.741L295.229 347.864C298.208 349.331 301.448 350.195 304.762 350.405C308.076 350.615 311.399 350.168 314.539 349.088C317.68 348.008 320.575 346.318 323.059 344.114C325.544 341.911 327.567 339.237 329.014 336.248L329.859 334.535C342.993 336.248 360.28 323.022 370.913 302.047C382.054 280.067 382.014 257.241 371.444 248.447C372.129 241.954 371.901 232.137 373.654 218.957C374.099 215.873 374.585 212.843 375.11 209.866Z" fill="#FE7624"/>
<path d="M324.936 321.4C276.778 332.645 191.781 330.32 99.2226 313.748L98.6516 315.353C97.8343 313.007 96.4319 310.908 94.5773 309.255C92.7226 307.602 90.4769 306.45 88.0526 305.907L63.3883 300.391C59.6064 299.545 55.6433 300.235 52.3705 302.311C49.0978 304.386 46.7834 307.676 45.9365 311.458L45.6852 312.68C45.2653 314.552 45.2184 316.489 45.547 318.379C45.8757 320.27 46.5736 322.077 47.6008 323.698C48.628 325.318 49.9644 326.721 51.5337 327.825C53.103 328.929 54.8744 329.713 56.7468 330.132L81.394 335.677C83.2869 336.102 85.2457 336.144 87.1552 335.801C89.0646 335.457 90.8862 334.736 92.5126 333.678L92.2042 334.592C92.2042 334.592 182.627 361.758 313.606 350.393C313.601 350.393 325.108 322.834 324.936 321.4Z" fill="#FE7624"/>
<path d="M253.399 326.711C253.399 326.711 303.082 333.461 317.358 313.754C337.54 310.139 330.813 338.115 330.813 338.115" stroke="white" stroke-width="6" stroke-linecap="round" stroke-linejoin="round"/>
<path d="M363.894 246.591C363.894 246.591 337.054 233.565 317.375 313.76" stroke="white" stroke-width="6" stroke-linecap="round" stroke-linejoin="round"/>
<path d="M702.822 339.155L676.17 350.005L389.301 349.246C386.817 349.246 384.813 346.23 384.824 342.53L384.858 330.732C384.858 327.031 386.885 324.039 389.364 324.044L676.239 324.827L702.833 335.814C703.981 336.248 703.975 338.687 702.822 339.155Z" fill="#5D21D1"/>
<path d="M394.972 350.468L395.057 314.565L465.601 316.015" stroke="#7209B7" stroke-width="6" stroke-linecap="round" stroke-linejoin="round"/>
<path d="M494.931 336.208H430.286" stroke="white" stroke-width="6" stroke-linecap="round" stroke-linejoin="round"/>
<path d="M1.7132 351.41H798.287" stroke="#7209B7" stroke-width="6" stroke-linecap="round" stroke-linejoin="round"/>
</g>
<defs>
<clipPath id="clip0">
<rect width="800" height="300.175" fill="white" transform="translate(0 53)"/>
</clipPath>
</defs>
</svg>
