<svg width="900" height="801" viewBox="0 0 900 801" fill="none" xmlns="http://www.w3.org/2000/svg">
<path d="M803 248.8C884.6 390.4 908.6 565 839 667C769.4 769.6 606.2 799 441.8 800.2C277.4 800.8 111.8 772.6 46.4001 672.4C-18.9998 572.8 15.8001 401.8 98.6001 259.6C181.4 116.8 312.2 3.40002 447.2 1.00002C582.2 -1.39998 721.4 107.2 803 248.8Z" fill="#2E186A" fill-opacity="0.08"/>
<g clip-path="url(#clip0)">
<path d="M174.101 534.909L160.731 428.283C155.465 386.304 185.389 352.271 227.614 352.271H298.217" stroke="#7209B7" stroke-width="6" stroke-linecap="round" stroke-linejoin="round"/>
<path d="M342.47 350.397L351.237 338.052L348.93 321.476C348.311 320.304 347.675 319.082 347.023 317.821C299.149 324.945 293.324 345.005 304.075 366.491C224.66 381.998 190.085 503.895 210.742 561.731C216.627 578.17 221.351 594.608 238.836 594.795" stroke="#7209B7" stroke-width="6" stroke-linecap="round" stroke-linejoin="round"/>
<path d="M367.44 394.71C367.44 394.606 367.44 394.502 367.44 394.398C370.037 394.65 372.558 394.666 374.991 392.562C381.018 387.34 383.155 385.773 383.155 385.773C383.155 385.773 383.703 386.43 384.673 387.543C385.862 385.351 387.101 383.077 388.366 380.776C362.344 360.622 342.47 350.397 342.47 350.397L341.001 349.345L331.445 361C331.445 361 346.996 371.718 367.44 394.71Z" fill="#FE7624"/>
<path d="M493.228 583.901C493.228 583.901 451.584 471.906 456.882 437.198C459.77 418.267 455.238 396.798 448.981 380.211L437.052 380.984L422.772 414.749C423.704 414.979 424.635 415.171 425.567 415.297C425.567 415.297 425.019 418.842 423.671 426.99C422.767 432.42 424.317 433.017 425.545 436.787C427.128 439.324 428.345 442.174 427.008 446.579C426.57 448.02 425.528 461.593 423.172 480.004C427.556 489.319 431.742 499.15 435.666 509.594C460.915 576.948 458.29 584.296 458.29 584.296L493.228 583.901Z" fill="#FE7624"/>
<path d="M634.254 593.912C631.257 574.186 609.881 468.305 487.59 375.433C484.85 358.841 477.918 332.726 442.296 320.517" stroke="#7209B7" stroke-width="6" stroke-linecap="round" stroke-linejoin="round"/>
<path d="M466.8 431.302C466.8 431.302 465.485 467.073 473.315 492.788" stroke="#7209B7" stroke-width="8" stroke-linecap="round" stroke-linejoin="round"/>
<path d="M485.968 375.022C486.357 377.356 486.658 379.504 486.948 381.389C490.313 403.209 483.113 417.697 478.351 427.741C491.135 418.699 499.754 401.505 504.105 388.392C498.85 384.184 491.677 379.274 485.968 375.022Z" fill="#7209B7"/>
<path d="M305.341 365.521C296.398 367.345 281.702 371.8 271.11 379.126C278.507 383.159 315.144 405.099 345.084 418.261C345.319 418.124 346.963 415.384 347.785 414.316C331.215 401.176 313.785 382.447 305.341 365.521Z" fill="#7209B7"/>
<path d="M329.456 278.248C329.456 278.248 309.122 283.761 317.352 301.125C323.072 313.18 333.933 308.895 340.41 305.24" stroke="#7209B7" stroke-width="6" stroke-linecap="round" stroke-linejoin="round"/>
<path d="M334.881 281.547L334.826 281.421C334.826 281.421 316.601 225.305 373.243 206.034C378.514 204.253 414.832 192.702 426.57 222.472C434.46 242.5 438.942 264.9 441.134 282.435" stroke="#7209B7" stroke-width="6" stroke-linecap="round" stroke-linejoin="round"/>
<path d="M398.63 355.027C391.813 355.027 385.331 353.893 380.229 351.877C363.681 345.34 360.163 341.126 354.223 331.186C348.284 321.246 329.67 283.3 329.67 283.3M441.255 282.435C441.255 282.435 444.838 300.265 442.69 317.745" stroke="#7209B7" stroke-width="6" stroke-linecap="round" stroke-linejoin="round"/>
<path d="M331.094 288.259C331.094 288.259 320.618 276.111 313.05 261.596C305.927 247.952 308.881 231.048 320.689 221.185C330.574 212.905 339.982 215.097 339.982 215.097C339.982 215.097 322.963 197.76 336.382 175.332C338.731 171.408 341.857 168.004 345.567 165.331C349.278 162.657 353.495 160.768 357.961 159.781C379.988 154.954 391.386 171.754 391.386 171.754C391.386 171.754 404.043 122.882 458.406 136.329C463.885 137.688 471.135 143.485 474.954 147.649C498.088 172.905 454.504 220.576 427.989 230.122C398.876 240.599 380.153 240.023 368.711 235.125C376.936 237.629 377.237 284.024 331.094 288.259Z" fill="#7209B7"/>
<path d="M415.112 273.152L425.38 300.473L414.827 300.418" stroke="#7209B7" stroke-width="8" stroke-linecap="round" stroke-linejoin="round"/>
<path d="M409.473 324.15C412.339 324.15 414.663 321.827 414.663 318.961C414.663 316.095 412.339 313.772 409.473 313.772C406.608 313.772 404.284 316.095 404.284 318.961C404.284 321.827 406.608 324.15 409.473 324.15Z" fill="#7209B7"/>
<path d="M427.259 275.412C428.85 275.014 429.641 272.694 429.025 270.231C428.409 267.768 426.62 266.094 425.029 266.492C423.437 266.89 422.647 269.209 423.263 271.672C423.879 274.135 425.668 275.81 427.259 275.412Z" fill="#7209B7"/>
<path d="M399.394 281.863C400.985 281.466 401.776 279.146 401.16 276.683C400.544 274.22 398.755 272.546 397.163 272.944C395.572 273.341 394.782 275.661 395.398 278.124C396.014 280.587 397.803 282.261 399.394 281.863Z" fill="#7209B7"/>
<path d="M380.092 259.996C381.08 257.768 382.647 255.846 384.63 254.43C386.614 253.014 388.941 252.156 391.369 251.947" stroke="#7209B7" stroke-width="8" stroke-linecap="round" stroke-linejoin="round"/>
<path d="M417.715 244.862C417.715 244.862 425.189 240.79 428.822 246.823" stroke="#7209B7" stroke-width="8" stroke-linecap="round" stroke-linejoin="round"/>
<path d="M741.927 442.442H528.883C527.526 442.443 526.209 442.901 525.145 443.744C524.081 444.586 523.332 445.763 523.02 447.083L493.398 572.466H416.175C416.175 572.466 411.895 594.57 436.849 594.57H708.847C710.204 594.569 711.521 594.111 712.585 593.269C713.649 592.426 714.398 591.25 714.71 589.929L747.801 449.856C748.01 448.97 748.016 448.049 747.819 447.16C747.621 446.272 747.225 445.44 746.659 444.726C746.094 444.013 745.375 443.437 744.555 443.041C743.736 442.646 742.837 442.441 741.927 442.442Z" fill="#7209B7"/>
<path d="M657.411 247.01H655.734C654.221 247.01 652.994 248.236 652.994 249.749V254.073C652.994 255.586 654.221 256.812 655.734 256.812H657.411C658.924 256.812 660.151 255.586 660.151 254.073V249.749C660.151 248.236 658.924 247.01 657.411 247.01Z" fill="#FE7624"/>
<path d="M647.504 247.01H603.777C602.264 247.01 601.038 248.236 601.038 249.749V254.073C601.038 255.586 602.264 256.812 603.777 256.812H647.504C649.017 256.812 650.244 255.586 650.244 254.073V249.749C650.244 248.236 649.017 247.01 647.504 247.01Z" fill="#7209B7"/>
<path d="M651.959 292.544H603.777C602.264 292.544 601.038 293.771 601.038 295.284V299.607C601.038 301.121 602.264 302.347 603.777 302.347H651.959C653.472 302.347 654.698 301.121 654.698 299.607V295.284C654.698 293.771 653.472 292.544 651.959 292.544Z" fill="#7209B7"/>
<path d="M695.093 277.383H617.345C615.831 277.383 614.605 278.609 614.605 280.122V284.446C614.605 285.959 615.831 287.185 617.345 287.185H695.093C696.607 287.185 697.833 285.959 697.833 284.446V280.122C697.833 278.609 696.607 277.383 695.093 277.383Z" fill="#FE7624"/>
<path d="M744.705 277.383H705.231C703.718 277.383 702.491 278.609 702.491 280.122V284.446C702.491 285.959 703.718 287.185 705.231 287.185H744.705C746.218 287.185 747.445 285.959 747.445 284.446V280.122C747.445 278.609 746.218 277.383 744.705 277.383Z" fill="#FE7624"/>
<path d="M759.922 262.226H758.245C756.732 262.226 755.505 263.453 755.505 264.966V269.289C755.505 270.802 756.732 272.029 758.245 272.029H759.922C761.435 272.029 762.661 270.802 762.661 269.289V264.966C762.661 263.453 761.435 262.226 759.922 262.226Z" fill="#7209B7"/>
<path d="M684.359 262.199H603.777C602.264 262.199 601.038 263.425 601.038 264.939V269.262C601.038 270.775 602.264 272.002 603.777 272.002H684.359C685.872 272.002 687.099 270.775 687.099 269.262V264.939C687.099 263.425 685.872 262.199 684.359 262.199Z" fill="#7209B7"/>
<path d="M709.773 247.01H666.047C664.533 247.01 663.307 248.236 663.307 249.749V254.073C663.307 255.586 664.533 256.812 666.047 256.812H709.773C711.286 256.812 712.513 255.586 712.513 254.073V249.749C712.513 248.236 711.286 247.01 709.773 247.01Z" fill="#7209B7"/>
<path d="M748.919 262.166H693.691C692.178 262.166 690.951 263.393 690.951 264.906V269.289C690.951 270.802 692.178 272.029 693.691 272.029H748.919C750.432 272.029 751.659 270.802 751.659 269.289V264.906C751.659 263.393 750.432 262.166 748.919 262.166Z" fill="#FE7624"/>
<path d="M647.504 345.296H603.777C602.264 345.296 601.038 346.522 601.038 348.035V352.359C601.038 353.872 602.264 355.099 603.777 355.099H647.504C649.017 355.099 650.244 353.872 650.244 352.359V348.035C650.244 346.522 649.017 345.296 647.504 345.296Z" fill="#7209B7"/>
<path d="M651.959 390.831H603.777C602.264 390.831 601.038 392.057 601.038 393.57V397.894C601.038 399.407 602.264 400.633 603.777 400.633H651.959C653.472 400.633 654.698 399.407 654.698 397.894V393.57C654.698 392.057 653.472 390.831 651.959 390.831Z" fill="#7209B7"/>
<path d="M695.093 375.674H617.345C615.831 375.674 614.605 376.901 614.605 378.414V382.737C614.605 384.25 615.831 385.477 617.345 385.477H695.093C696.607 385.477 697.833 384.25 697.833 382.737V378.414C697.833 376.901 696.607 375.674 695.093 375.674Z" fill="#FE7624"/>
<path d="M744.705 375.674H705.231C703.718 375.674 702.491 376.901 702.491 378.414V382.737C702.491 384.25 703.718 385.477 705.231 385.477H744.705C746.218 385.477 747.445 384.25 747.445 382.737V378.414C747.445 376.901 746.218 375.674 744.705 375.674Z" fill="#FE7624"/>
<path d="M759.922 360.512H758.245C756.732 360.512 755.505 361.739 755.505 363.252V367.575C755.505 369.089 756.732 370.315 758.245 370.315H759.922C761.435 370.315 762.661 369.089 762.661 367.575V363.252C762.661 361.739 761.435 360.512 759.922 360.512Z" fill="#7209B7"/>
<path d="M772.437 345.296H770.76C769.247 345.296 768.02 346.522 768.02 348.035V352.359C768.02 353.872 769.247 355.099 770.76 355.099H772.437C773.95 355.099 775.177 353.872 775.177 352.359V348.035C775.177 346.522 773.95 345.296 772.437 345.296Z" fill="#7209B7"/>
<path d="M684.359 360.485H603.777C602.264 360.485 601.038 361.712 601.038 363.225V367.548C601.038 369.061 602.264 370.288 603.777 370.288H684.359C685.872 370.288 687.099 369.061 687.099 367.548V363.225C687.099 361.712 685.872 360.485 684.359 360.485Z" fill="#7209B7"/>
<path d="M709.773 345.296H655.734C654.221 345.296 652.994 346.522 652.994 348.035V352.359C652.994 353.872 654.221 355.099 655.734 355.099H709.773C711.286 355.099 712.513 353.872 712.513 352.359V348.035C712.513 346.522 711.286 345.296 709.773 345.296Z" fill="#FE7624"/>
<path d="M762.771 345.296H719.044C717.531 345.296 716.305 346.522 716.305 348.035V352.359C716.305 353.872 717.531 355.099 719.044 355.099H762.771C764.284 355.099 765.511 353.872 765.511 352.359V348.035C765.511 346.522 764.284 345.296 762.771 345.296Z" fill="#FE7624"/>
<path d="M657.411 330.605H655.734C654.221 330.605 652.994 331.832 652.994 333.345V337.668C652.994 339.181 654.221 340.408 655.734 340.408H657.411C658.924 340.408 660.151 339.181 660.151 337.668V333.345C660.151 331.832 658.924 330.605 657.411 330.605Z" fill="#FE7624"/>
<path d="M647.504 330.605H603.777C602.264 330.605 601.038 331.832 601.038 333.345V337.668C601.038 339.181 602.264 340.408 603.777 340.408H647.504C649.017 340.408 650.244 339.181 650.244 337.668V333.345C650.244 331.832 649.017 330.605 647.504 330.605Z" fill="#7209B7"/>
<path d="M709.773 330.605H666.047C664.533 330.605 663.307 331.832 663.307 333.345V337.668C663.307 339.181 664.533 340.408 666.047 340.408H709.773C711.286 340.408 712.513 339.181 712.513 337.668V333.345C712.513 331.832 711.286 330.605 709.773 330.605Z" fill="#7209B7"/>
<path d="M748.919 360.458H693.691C692.178 360.458 690.951 361.684 690.951 363.197V367.581C690.951 369.094 692.178 370.321 693.691 370.321H748.919C750.432 370.321 751.659 369.094 751.659 367.581V363.197C751.659 361.684 750.432 360.458 748.919 360.458Z" fill="#FE7624"/>
<path d="M813.347 536.969C814.543 536.551 815.788 536.291 817.051 536.197C819.058 536.052 821.074 536.333 822.965 537.021C824.856 537.71 826.58 538.79 828.024 540.191C829.469 541.592 830.601 543.283 831.347 545.152C832.092 547.021 832.435 549.027 832.351 551.038C832.268 553.048 831.76 555.019 830.862 556.82C829.964 558.621 828.696 560.211 827.14 561.488C825.584 562.765 823.776 563.698 821.835 564.227C819.893 564.756 817.861 564.869 815.873 564.559" stroke="#7209B7" stroke-width="6" stroke-linecap="round" stroke-linejoin="round"/>
<path d="M778.925 538.832L758.502 513.901" stroke="#7209B7" stroke-width="6" stroke-linecap="round" stroke-linejoin="round"/>
<path d="M755.505 531.106V578.126C755.505 582.486 757.237 586.667 760.32 589.75C763.403 592.833 767.584 594.565 771.944 594.565H799.67C804.03 594.565 808.211 592.833 811.294 589.75C814.377 586.667 816.109 582.486 816.109 578.126V531.106H755.505ZM780.02 565.534C780.189 565.632 780.329 565.772 780.425 565.942C780.522 566.111 780.571 566.303 780.568 566.498C780.568 566.789 780.453 567.068 780.247 567.273C780.042 567.479 779.763 567.594 779.473 567.594C779.281 567.597 779.092 567.55 778.925 567.457L767.966 560.882C767.777 560.793 767.618 560.653 767.507 560.478C767.395 560.302 767.336 560.098 767.336 559.89C767.336 559.682 767.395 559.478 767.507 559.303C767.618 559.127 767.777 558.987 767.966 558.898L778.925 552.323C779.092 552.23 779.281 552.183 779.473 552.186C779.763 552.186 780.042 552.301 780.247 552.507C780.453 552.712 780.568 552.991 780.568 553.282C780.571 553.477 780.522 553.669 780.425 553.838C780.329 554.008 780.189 554.149 780.02 554.246L770.59 559.901L780.02 565.534ZM793.719 549.326L784.897 571.381C784.841 571.492 784.767 571.594 784.678 571.682C784.576 571.786 784.454 571.869 784.319 571.925C784.185 571.982 784.04 572.011 783.894 572.011C783.604 572.011 783.325 571.895 783.12 571.69C782.914 571.484 782.799 571.206 782.799 570.915C782.797 570.754 782.831 570.595 782.897 570.449L791.719 548.394C791.779 548.275 791.858 548.168 791.955 548.076C792.055 547.973 792.175 547.891 792.308 547.836C792.441 547.781 792.584 547.755 792.727 547.758C793.018 547.758 793.297 547.874 793.502 548.079C793.708 548.285 793.823 548.564 793.823 548.854C793.825 549.024 793.79 549.193 793.719 549.348V549.326ZM808.651 560.855L797.692 567.43C797.524 567.523 797.335 567.57 797.144 567.567C796.853 567.567 796.575 567.451 796.369 567.246C796.164 567.04 796.048 566.762 796.048 566.471C796.045 566.276 796.095 566.084 796.191 565.914C796.287 565.745 796.427 565.604 796.596 565.507L806.037 559.885L796.607 554.23C796.438 554.132 796.298 553.992 796.202 553.822C796.106 553.652 796.056 553.46 796.059 553.265C796.059 553.121 796.087 552.978 796.143 552.844C796.198 552.711 796.28 552.589 796.382 552.487C796.485 552.384 796.607 552.302 796.742 552.247C796.876 552.191 797.02 552.163 797.166 552.164C797.357 552.161 797.546 552.208 797.714 552.301L808.673 558.876C808.861 558.965 809.02 559.105 809.132 559.281C809.243 559.456 809.303 559.66 809.303 559.868C809.303 560.076 809.243 560.28 809.132 560.456C809.02 560.631 808.861 560.772 808.673 560.86L808.651 560.855Z" fill="#7209B7"/>
<path d="M134.358 564.69C132.487 564.828 130.607 564.596 128.826 564.007C127.045 563.419 125.397 562.485 123.976 561.259C122.556 560.034 121.391 558.541 120.548 556.865C119.704 555.189 119.2 553.364 119.062 551.493C118.924 549.622 119.156 547.742 119.745 545.961C120.333 544.18 121.267 542.532 122.492 541.111C123.718 539.691 125.211 538.526 126.887 537.683C128.563 536.839 130.388 536.334 132.259 536.197C133.123 536.132 133.99 536.146 134.851 536.241" stroke="#7209B7" stroke-width="6" stroke-linecap="round" stroke-linejoin="round"/>
<path d="M132.5 531.106V578.126C132.5 582.486 134.232 586.667 137.315 589.75C140.398 592.833 144.579 594.565 148.939 594.565H176.671C181.03 594.565 185.212 592.833 188.294 589.75C191.377 586.667 193.109 582.486 193.109 578.126V531.106H132.5ZM157.021 565.534C157.19 565.632 157.33 565.772 157.426 565.942C157.522 566.111 157.572 566.303 157.569 566.498C157.569 566.789 157.454 567.068 157.248 567.273C157.043 567.479 156.764 567.594 156.473 567.594C156.282 567.597 156.093 567.55 155.925 567.457L144.966 560.882C144.778 560.793 144.619 560.653 144.507 560.478C144.396 560.302 144.336 560.098 144.336 559.89C144.336 559.682 144.396 559.478 144.507 559.303C144.619 559.127 144.778 558.987 144.966 558.898L155.925 552.323C156.093 552.23 156.282 552.183 156.473 552.186C156.764 552.186 157.043 552.301 157.248 552.507C157.454 552.712 157.569 552.991 157.569 553.282C157.572 553.477 157.522 553.669 157.426 553.838C157.33 554.008 157.19 554.149 157.021 554.246L147.591 559.901L157.021 565.534ZM180.134 560.876L169.175 567.452C169.007 567.545 168.818 567.592 168.627 567.589C168.482 567.592 168.338 567.565 168.204 567.509C168.07 567.453 167.949 567.37 167.849 567.266C167.744 567.165 167.662 567.044 167.606 566.91C167.55 566.776 167.523 566.632 167.525 566.487C167.523 566.293 167.572 566.1 167.668 565.931C167.765 565.761 167.904 565.621 168.073 565.523L177.504 559.874L168.073 554.219C167.904 554.121 167.765 553.981 167.668 553.811C167.572 553.642 167.523 553.449 167.525 553.254C167.525 552.964 167.641 552.685 167.846 552.48C168.052 552.274 168.331 552.159 168.621 552.159C168.813 552.156 169.002 552.203 169.169 552.296L180.128 558.871C180.316 558.959 180.476 559.1 180.587 559.275C180.699 559.451 180.758 559.655 180.758 559.863C180.758 560.071 180.699 560.275 180.587 560.45C180.476 560.626 180.316 560.766 180.128 560.855L180.134 560.876Z" fill="#7209B7"/>
<path d="M234.162 512.158L226.671 498.563" stroke="#7209B7" stroke-width="6" stroke-linecap="round" stroke-linejoin="round"/>
<path d="M217.531 513.61H259.05" stroke="#7209B7" stroke-width="6" stroke-linecap="round" stroke-linejoin="round"/>
<path d="M253.302 557.885C252.775 557.353 252.079 557.021 251.335 556.945C250.59 556.868 249.842 557.053 249.218 557.467C248.594 557.881 248.133 558.499 247.914 559.215C247.695 559.93 247.731 560.7 248.017 561.392C248.302 562.085 248.818 562.656 249.478 563.01C250.138 563.364 250.9 563.477 251.635 563.332C252.369 563.186 253.03 562.79 253.505 562.212C253.98 561.633 254.239 560.907 254.239 560.159C254.245 559.736 254.165 559.316 254.004 558.925C253.843 558.534 253.604 558.18 253.302 557.885Z" fill="#7209B7"/>
<path d="M251.022 553.085C251.767 553.09 252.491 552.836 253.07 552.367C253.649 551.898 254.047 551.243 254.196 550.513C254.346 549.783 254.237 549.023 253.888 548.365C253.54 547.706 252.974 547.189 252.287 546.901C251.599 546.613 250.833 546.573 250.12 546.788C249.406 547.002 248.789 547.457 248.374 548.076C247.959 548.695 247.771 549.438 247.844 550.18C247.916 550.922 248.243 551.615 248.77 552.142C249.062 552.444 249.412 552.683 249.799 552.845C250.186 553.007 250.603 553.088 251.022 553.085Z" fill="#7209B7"/>
<path d="M253.302 572.729C253.833 572.202 254.165 571.507 254.242 570.762C254.318 570.018 254.134 569.27 253.72 568.646C253.306 568.022 252.689 567.561 251.974 567.342C251.258 567.122 250.489 567.158 249.796 567.443C249.104 567.727 248.532 568.243 248.178 568.902C247.824 569.561 247.709 570.323 247.854 571.057C247.998 571.792 248.393 572.453 248.971 572.929C249.549 573.404 250.274 573.665 251.022 573.666C251.446 573.673 251.867 573.593 252.259 573.432C252.651 573.271 253.006 573.032 253.302 572.729Z" fill="#7209B7"/>
<path d="M263.132 523.528L255.85 514.054H220.731L213.449 523.528C212.751 524.402 212.366 525.484 212.353 526.602V584.279C212.381 585.203 212.646 586.103 213.122 586.895C213.598 587.686 214.269 588.342 215.071 588.8C217.323 590.203 220.194 592.373 220.397 594.449H256.184C256.381 592.373 259.252 590.203 261.505 588.8C262.305 588.339 262.974 587.681 263.447 586.887C263.92 586.094 264.182 585.192 264.206 584.268V526.602C264.198 525.487 263.82 524.406 263.132 523.528ZM247.888 534.591L251.724 528.191C251.776 528.089 251.855 528.003 251.951 527.941C252.047 527.878 252.157 527.842 252.272 527.835C252.391 527.837 252.508 527.872 252.61 527.934C252.712 527.997 252.796 528.085 252.852 528.191L256.688 534.591C256.744 534.69 256.772 534.801 256.77 534.914C256.772 534.998 256.756 535.081 256.724 535.159C256.692 535.236 256.644 535.306 256.584 535.364C256.525 535.425 256.454 535.474 256.376 535.507C256.298 535.539 256.214 535.556 256.129 535.556C256.017 535.552 255.908 535.52 255.812 535.463C255.716 535.405 255.637 535.324 255.581 535.227L252.293 529.747L249.006 535.227C248.95 535.324 248.87 535.405 248.774 535.462C248.679 535.52 248.57 535.552 248.458 535.556C248.373 535.556 248.289 535.539 248.211 535.507C248.132 535.474 248.062 535.425 248.003 535.364C247.942 535.306 247.893 535.236 247.86 535.159C247.827 535.082 247.811 534.998 247.811 534.914C247.807 534.802 247.834 534.69 247.888 534.591ZM248.14 537.002C248.249 536.921 248.382 536.879 248.518 536.882C248.603 536.881 248.687 536.898 248.765 536.931C248.843 536.964 248.914 537.012 248.973 537.073C249.034 537.132 249.081 537.203 249.114 537.281C249.146 537.36 249.161 537.444 249.159 537.528C249.163 537.607 249.149 537.685 249.12 537.758C249.091 537.83 249.046 537.896 248.989 537.95L248.748 538.186C248.444 538.481 248.204 538.834 248.042 539.225C247.88 539.616 247.8 540.037 247.806 540.46C247.788 540.854 247.853 541.248 247.997 541.615C248.142 541.982 248.362 542.315 248.644 542.591C248.799 542.718 248.993 542.785 249.192 542.783C249.309 542.781 249.422 542.741 249.514 542.67C249.607 542.599 249.674 542.501 249.707 542.389L251.017 538.432C251.135 538.056 251.331 537.709 251.592 537.413C251.768 537.233 251.98 537.091 252.214 536.996C252.448 536.902 252.699 536.857 252.951 536.865C253.211 536.864 253.468 536.916 253.708 537.018C253.947 537.12 254.163 537.269 254.343 537.457C254.737 537.853 255.045 538.326 255.247 538.846C255.45 539.367 255.543 539.924 255.521 540.482C255.524 541.142 255.381 541.794 255.101 542.392C254.822 542.99 254.413 543.518 253.904 543.939C253.853 543.983 253.792 544.017 253.727 544.037C253.663 544.058 253.594 544.066 253.526 544.06C253.442 544.06 253.358 544.044 253.28 544.012C253.202 543.981 253.131 543.933 253.071 543.874C253.012 543.814 252.965 543.743 252.933 543.665C252.901 543.587 252.885 543.503 252.885 543.419C252.881 543.339 252.894 543.26 252.923 543.186C252.952 543.113 252.998 543.046 253.055 542.991L253.296 542.756C253.599 542.461 253.839 542.107 254 541.716C254.161 541.324 254.24 540.905 254.233 540.482C254.252 540.088 254.188 539.694 254.044 539.327C253.901 538.96 253.681 538.627 253.4 538.35C253.245 538.225 253.052 538.157 252.852 538.158C252.736 538.161 252.623 538.2 252.53 538.271C252.438 538.342 252.37 538.441 252.337 538.553L251.022 542.509C250.912 542.883 250.725 543.23 250.474 543.528C250.298 543.709 250.086 543.851 249.852 543.945C249.618 544.039 249.367 544.084 249.115 544.076C248.855 544.077 248.598 544.025 248.359 543.923C248.119 543.822 247.903 543.672 247.724 543.484C247.33 543.088 247.022 542.615 246.819 542.095C246.616 541.575 246.523 541.018 246.545 540.46C246.539 539.801 246.679 539.15 246.955 538.552C247.23 537.954 247.635 537.425 248.14 537.002ZM247.839 546.684C248.575 545.945 249.546 545.484 250.584 545.38C251.622 545.276 252.665 545.536 253.533 546.114C254.402 546.693 255.043 547.555 255.347 548.553C255.651 549.552 255.6 550.625 255.201 551.589C254.803 552.554 254.082 553.35 253.162 553.843C252.242 554.336 251.18 554.494 250.156 554.291C249.132 554.088 248.21 553.536 247.548 552.73C246.886 551.923 246.524 550.912 246.524 549.868C246.514 549.276 246.625 548.688 246.851 548.14C247.077 547.592 247.413 547.097 247.839 546.684ZM246.71 574.767C246.622 574.676 246.563 574.562 246.539 574.438C246.516 574.314 246.529 574.186 246.578 574.07C246.626 573.953 246.707 573.854 246.811 573.783C246.916 573.712 247.039 573.673 247.165 573.671H247.871C247.124 572.94 246.655 571.971 246.543 570.932C246.431 569.892 246.684 568.846 247.258 567.972C247.833 567.099 248.693 566.451 249.691 566.142C250.69 565.832 251.765 565.879 252.733 566.275C253.701 566.67 254.501 567.39 254.997 568.31C255.493 569.231 255.653 570.295 255.451 571.321C255.249 572.347 254.697 573.27 253.889 573.934C253.081 574.598 252.068 574.96 251.022 574.959H247.187C247.098 574.963 247.01 574.948 246.927 574.915C246.845 574.882 246.771 574.831 246.71 574.767ZM256.732 577.205L252.896 583.605C252.84 583.711 252.756 583.8 252.654 583.862C252.552 583.925 252.435 583.959 252.315 583.962C252.201 583.955 252.09 583.918 251.994 583.856C251.898 583.793 251.82 583.707 251.767 583.605L247.932 577.205C247.876 577.107 247.847 576.995 247.85 576.882C247.849 576.798 247.866 576.715 247.899 576.638C247.932 576.56 247.98 576.491 248.041 576.433C248.099 576.371 248.17 576.321 248.248 576.288C248.327 576.255 248.411 576.239 248.496 576.241C248.608 576.245 248.717 576.277 248.813 576.334C248.909 576.392 248.988 576.473 249.044 576.57L252.332 582.049L255.62 576.57C255.675 576.473 255.755 576.391 255.85 576.334C255.946 576.276 256.056 576.244 256.167 576.241C256.337 576.242 256.499 576.31 256.619 576.43C256.739 576.55 256.807 576.713 256.809 576.882C256.812 576.995 256.786 577.106 256.732 577.205ZM259.214 564.476C259.155 564.537 259.084 564.585 259.006 564.617C258.928 564.649 258.844 564.664 258.759 564.663H251.022C249.982 564.662 248.974 564.3 248.17 563.639C247.367 562.978 246.817 562.06 246.615 561.039C246.412 560.018 246.57 558.959 247.061 558.042C247.551 557.125 248.345 556.406 249.306 556.008C250.267 555.61 251.337 555.557 252.333 555.859C253.328 556.161 254.188 556.798 254.767 557.663C255.345 558.528 255.606 559.567 255.505 560.602C255.403 561.638 254.946 562.606 254.211 563.342L254.178 563.375H258.759C258.844 563.374 258.928 563.391 259.006 563.424C259.085 563.457 259.155 563.506 259.214 563.567C259.276 563.625 259.324 563.696 259.357 563.774C259.39 563.853 259.407 563.937 259.406 564.022C259.406 564.106 259.389 564.19 259.356 564.268C259.323 564.347 259.275 564.417 259.214 564.476Z" fill="#7209B7"/>
<path d="M399.019 360.408C399.243 353.323 399.134 342.172 396.619 337.301C392.624 329.57 396.35 321.317 404.52 329.761C409.178 334.572 411.463 340.956 412.569 345.553" stroke="#7209B7" stroke-width="6" stroke-linecap="round" stroke-linejoin="round"/>
<path d="M468.006 349.038C475.895 349.038 482.291 342.643 482.291 334.753C482.291 326.864 475.895 320.468 468.006 320.468C460.116 320.468 453.721 326.864 453.721 334.753C453.721 342.643 460.116 349.038 468.006 349.038Z" stroke="#7209B7" stroke-width="6" stroke-linecap="round" stroke-linejoin="round"/>
<path d="M375.479 596.208C417.232 593.091 425.539 451.423 426.986 446.585C429.885 437.028 420.783 434.787 421.978 427.22C423.172 419.653 422.246 416.261 422.246 416.261C402.646 413.072 383.61 388.425 383.61 388.425C383.61 388.425 381.638 389.866 376.021 394.666C370.405 399.466 364.136 392.091 357.725 399.444C353.495 404.349 307.401 481.73 307.401 481.73" stroke="#7209B7" stroke-width="6" stroke-linecap="round" stroke-linejoin="round"/>
<path d="M423.671 426.995C425.03 418.847 425.567 415.302 425.567 415.302C404.695 412.091 383.172 385.773 383.172 385.773C383.172 385.773 381.046 387.34 375.007 392.562C372.574 394.666 370.076 394.65 367.457 394.398C365.61 417.253 406.608 437.598 426.027 438.557C424.789 433.067 422.646 433.182 423.671 426.995Z" fill="#7209B7"/>
<path d="M280.266 468.749C280.266 468.749 304.979 447.423 319.324 460.859" stroke="#7209B7" stroke-width="6" stroke-linecap="round" stroke-linejoin="round"/>
<path d="M375.04 405.631L416.443 429.702L437.167 380.704C457.162 380.737 457.074 369.877 452.888 369.504C448.701 369.132 428.597 371.954 428.597 371.954C428.597 371.954 429.249 370.491 445.584 367.389C461.918 364.288 458.849 355.186 455.337 354.94C451.825 354.693 425.868 361.197 425.868 361.197L448.17 353.236C456.11 350.715 456.389 343.022 452.241 341.937C449.501 341.219 434.893 345.635 423.331 349.679C423.331 349.679 437.227 342.556 443.819 338.249C450.411 333.942 445.803 328.326 441.951 328.676C438.099 329.027 411.337 346.923 406.241 351.356C401.145 355.789 375.04 405.631 375.04 405.631Z" stroke="#7209B7" stroke-width="6" stroke-linecap="round" stroke-linejoin="round"/>
<path d="M348.081 536.553C348.834 536.375 349.6 536.256 350.371 536.197C352.465 536.044 354.566 536.355 356.526 537.107C358.486 537.86 360.256 539.034 361.71 540.548C363.164 542.062 364.267 543.878 364.94 545.866C365.612 547.855 365.839 549.967 365.602 552.053C365.366 554.138 364.673 556.146 363.572 557.934C362.472 559.721 360.991 561.244 359.235 562.394C357.479 563.544 355.491 564.293 353.412 564.588C351.334 564.882 349.216 564.715 347.21 564.098" stroke="#7209B7" stroke-width="6" stroke-linecap="round" stroke-linejoin="round"/>
<path d="M288.825 531.106V578.126C288.825 582.486 290.557 586.667 293.64 589.75C296.723 592.833 300.904 594.565 305.264 594.565H332.99C337.35 594.565 341.531 592.833 344.614 589.75C347.697 586.667 349.429 582.486 349.429 578.126V531.106H288.825ZM313.341 565.534C313.51 565.632 313.649 565.772 313.746 565.942C313.842 566.111 313.891 566.303 313.889 566.498C313.889 566.789 313.773 567.068 313.568 567.273C313.362 567.479 313.084 567.594 312.793 567.594C312.601 567.597 312.412 567.55 312.245 567.457L301.286 560.882C301.098 560.793 300.938 560.653 300.827 560.478C300.715 560.302 300.656 560.098 300.656 559.89C300.656 559.682 300.715 559.478 300.827 559.303C300.938 559.127 301.098 558.987 301.286 558.898L312.245 552.323C312.412 552.23 312.601 552.183 312.793 552.186C312.937 552.186 313.081 552.214 313.214 552.27C313.348 552.325 313.469 552.407 313.571 552.509C313.676 552.609 313.759 552.73 313.814 552.864C313.87 552.998 313.897 553.142 313.894 553.287C313.897 553.482 313.848 553.674 313.751 553.844C313.655 554.014 313.515 554.154 313.346 554.252L303.916 559.907L313.341 565.534ZM327.04 549.326L318.218 571.381C318.159 571.493 318.084 571.594 317.993 571.682C317.891 571.786 317.769 571.869 317.634 571.925C317.5 571.982 317.355 572.011 317.209 572.011C316.919 572.011 316.64 571.895 316.434 571.69C316.229 571.484 316.113 571.206 316.113 570.915C316.113 570.755 316.145 570.597 316.207 570.449L325.029 548.394C325.09 548.276 325.169 548.169 325.264 548.076C325.364 547.973 325.485 547.892 325.618 547.837C325.751 547.783 325.893 547.756 326.037 547.758C326.328 547.758 326.606 547.874 326.812 548.079C327.017 548.285 327.133 548.564 327.133 548.854C327.137 549.023 327.107 549.191 327.045 549.348L327.04 549.326ZM341.971 560.855L331.012 567.43C330.845 567.523 330.656 567.57 330.464 567.567C330.174 567.567 329.895 567.451 329.689 567.246C329.484 567.04 329.368 566.762 329.368 566.471C329.366 566.276 329.415 566.084 329.511 565.914C329.608 565.745 329.747 565.604 329.916 565.507L339.341 559.857L329.916 554.202C329.747 554.105 329.608 553.964 329.511 553.795C329.415 553.625 329.366 553.433 329.368 553.238C329.365 553.093 329.393 552.949 329.448 552.815C329.504 552.681 329.587 552.56 329.692 552.46C329.794 552.357 329.915 552.276 330.048 552.221C330.182 552.165 330.325 552.137 330.47 552.137C330.661 552.134 330.85 552.181 331.018 552.274L341.977 558.849C342.165 558.938 342.324 559.078 342.436 559.253C342.547 559.429 342.606 559.633 342.606 559.841C342.606 560.049 342.547 560.253 342.436 560.428C342.324 560.604 342.165 560.744 341.977 560.833L341.971 560.855Z" fill="#7209B7"/>
<path d="M1.64385 595.94H898.356" stroke="#7209B7" stroke-width="6" stroke-linecap="round" stroke-linejoin="round"/>
<path d="M467.803 362.496L464.767 315.575L404.29 319.493L406.345 351.241C411.72 346.644 438.126 329.011 441.934 328.665C445.742 328.32 450.394 333.937 443.803 338.238C437.211 342.54 423.315 349.668 423.315 349.668C434.876 345.625 449.501 341.208 452.225 341.926C456.378 343.022 456.093 350.693 448.153 353.225L425.852 361.186C425.852 361.186 451.808 354.682 455.321 354.929C458.833 355.175 461.896 364.277 445.567 367.378C429.238 370.48 428.581 371.943 428.581 371.943C428.581 371.943 448.69 369.115 452.871 369.493C457.052 369.871 457.145 380.726 437.15 380.693L437.035 380.962L452.444 379.965C454.6 379.827 456.707 379.266 458.646 378.314C460.585 377.361 462.318 376.036 463.744 374.414C465.171 372.791 466.263 370.904 466.96 368.859C467.656 366.814 467.943 364.652 467.803 362.496Z" fill="#7209B7"/>
<path d="M633.167 464.167H604.833L607.333 492.5L619 495.833L630.667 492.5L633.167 464.167Z" fill="#E65100"/>
<path d="M619 466.667V493.25L628.333 490.583L630.417 466.667H619Z" fill="#FF6D00"/>
<path d="M619 480.833V477.5H626.167L625.583 487.083L619 489.25V485.75L622.417 484.583L622.667 480.833H619ZM626.417 474.167L626.667 470.833H619V474.167H626.417Z" fill="white"/>
<path d="M619 485.75V489.25L612.417 487.083L612.083 482.5H615.417L615.583 484.583L619 485.75ZM614.917 474.167H619V470.833H611.417L612 480.833H619V477.5H615.167L614.917 474.167Z" fill="#EEEEEE"/>
<path d="M536 531V501H566V531H536Z" fill="#FFD600"/>
<path d="M555.615 523.456C556.192 524.392 556.818 525.29 558.146 525.29C559.261 525.29 559.846 524.736 559.846 523.969C559.846 523.052 559.241 522.726 558.014 522.192L557.342 521.905C555.401 521.082 554.11 520.05 554.11 517.871C554.11 515.862 555.648 514.334 558.05 514.334C559.761 514.334 560.99 514.927 561.877 516.478L559.782 517.817C559.321 516.994 558.823 516.67 558.05 516.67C557.262 516.67 556.763 517.167 556.763 517.817C556.763 518.621 557.263 518.946 558.417 519.443L559.089 519.73C561.377 520.704 562.667 521.699 562.667 523.936C562.667 526.346 560.763 527.667 558.208 527.667C555.709 527.667 554.29 526.412 553.5 524.86L555.615 523.456ZM545.96 523.524C546.382 524.279 547.022 524.86 547.944 524.86C548.826 524.86 549.333 524.512 549.333 523.157V514.333H552.111V523.584C552.111 526.39 550.483 527.667 548.107 527.667C545.959 527.667 544.409 526.212 543.777 524.86L545.96 523.524Z" fill="#000001"/>
<path d="M618.989 554.167L614.612 546.667H601.478L618.989 576.667L636.5 546.667H623.367L618.989 554.167Z" fill="#81C784"/>
<path d="M623.367 546.667L618.989 554.167L614.612 546.667H608.288L618.989 565L629.69 546.667H623.367Z" fill="#455A64"/>
<path d="M701.167 500.167H672.833L675.333 528.5L687 531.833L698.667 528.5L701.167 500.167Z" fill="#0277BD"/>
<path d="M687 502.667V529.25L696.333 526.583L698.417 502.667H687Z" fill="#039BE5"/>
<path d="M694.583 506.833H687V510.167H691.083L690.833 513.5H687V516.833H690.667L690.417 520.583L687 521.75V525.25L693.583 523.083L694.167 513.5L694.583 506.833Z" fill="white"/>
<path d="M687 506.833V510.167H679.583L679.333 506.833H687ZM683.167 513.5L683.333 516.833H687V513.5H683.167ZM683.5 518.5H680.167L680.417 523.083L687 525.25V521.75L683.583 520.583L683.5 518.5Z" fill="#EEEEEE"/>
</g>
<defs>
<clipPath id="clip0">
<rect width="900" height="463.852" fill="white" transform="translate(0 134)"/>
</clipPath>
</defs>
</svg>
