<svg width="1247" height="712" viewBox="0 0 1247 712" fill="none" xmlns="http://www.w3.org/2000/svg">
<path d="M1034.6 613.41C1021.89 620.53 998.41 629.03 978.97 610.06C958.97 590.56 944.64 590.93 937.97 592.81C936.946 592.605 935.884 592.731 934.937 593.17C933.989 593.608 933.206 594.337 932.7 595.25L890.65 671.72C889.017 674.689 886.617 677.164 883.7 678.888C880.784 680.612 877.458 681.521 874.07 681.52H737C735.701 681.52 734.454 682.037 733.535 682.955C732.616 683.874 732.1 685.121 732.1 686.42C732.1 687.72 732.616 688.966 733.535 689.885C734.454 690.804 735.701 691.32 737 691.32H874.07C879.214 691.321 884.263 689.941 888.69 687.323C893.118 684.706 896.762 680.947 899.24 676.44L923.87 631.65C933.04 632.82 945.55 636.98 957.29 648.44C979.84 670.44 1006.39 658 1016.12 652.13C1018.5 650.7 1020.47 648.678 1021.84 646.26L1038.31 617.12C1038.61 616.602 1038.72 616.002 1038.64 615.411C1038.56 614.82 1038.29 614.272 1037.87 613.85C1037.45 613.429 1036.9 613.157 1036.31 613.078C1035.72 612.998 1035.12 613.115 1034.6 613.41V613.41Z" fill="#7209B7"/>
<path d="M354.21 524.93C354.064 524.627 353.858 524.358 353.604 524.137C353.35 523.917 353.054 523.752 352.734 523.65C352.413 523.549 352.075 523.515 351.741 523.549C351.407 523.583 351.083 523.686 350.79 523.85C350.4 524.07 346.16 526.67 327.88 535.73L319.43 539.86C279.53 559.08 220.66 583.48 196.69 573.4C196.222 573.202 195.704 573.154 195.208 573.264C194.711 573.373 194.261 573.634 193.92 574.01C193.84 574.1 185.22 583.44 166.45 592.17C149.11 600.24 119.31 609.43 75.82 607.38C75.4572 607.363 75.095 607.426 74.7596 607.566C74.4243 607.705 74.1242 607.918 73.881 608.188C73.6379 608.458 73.4579 608.778 73.3539 609.126C73.25 609.474 73.2247 609.841 73.28 610.2C73.3807 610.77 73.6741 611.287 74.1111 611.666C74.5481 612.045 75.102 612.262 75.68 612.28C79.56 612.46 83.32 612.55 86.99 612.57L88.75 624.39C88.8327 624.97 89.0943 625.509 89.4982 625.933C89.9021 626.356 90.4283 626.643 91.0031 626.753C91.578 626.863 92.1729 626.791 92.7048 626.547C93.2367 626.303 93.679 625.898 93.97 625.39L101.54 612.22C106.88 611.92 111.97 611.45 116.8 610.85L119.55 621.09C119.701 621.646 120.019 622.143 120.461 622.512C120.903 622.881 121.449 623.106 122.023 623.155C122.597 623.204 123.172 623.075 123.671 622.787C124.169 622.498 124.567 622.063 124.81 621.54L130.81 608.6C134.87 607.8 138.71 606.91 142.33 605.96L144.62 614.48C144.771 615.036 145.089 615.533 145.531 615.902C145.973 616.271 146.519 616.496 147.093 616.545C147.667 616.594 148.242 616.465 148.741 616.177C149.239 615.888 149.637 615.453 149.88 614.93L156.04 601.72C160.59 600.09 164.65 598.41 168.21 596.72L169.81 602.66C169.96 603.217 170.277 603.714 170.718 604.085C171.16 604.455 171.705 604.681 172.279 604.731C172.853 604.781 173.429 604.653 173.928 604.365C174.428 604.077 174.826 603.643 175.07 603.12L181.29 589.76C186.679 586.555 191.708 582.78 196.29 578.5C201.29 580.26 207.56 580.81 214.58 580.42L218.75 590.78C218.963 591.303 219.328 591.75 219.798 592.062C220.268 592.375 220.821 592.539 221.385 592.532C221.95 592.526 222.499 592.349 222.962 592.026C223.425 591.703 223.78 591.248 223.98 590.72L228.54 578.65C232.9 577.84 237.43 576.81 242.08 575.57L243.97 583.66C244.102 584.221 244.403 584.727 244.832 585.111C245.261 585.495 245.798 585.738 246.37 585.806C246.942 585.875 247.521 585.767 248.029 585.495C248.537 585.224 248.949 584.804 249.21 584.29L255.67 571.54C260.05 570.12 264.47 568.54 268.91 566.95L270.58 574.27C270.706 574.824 270.997 575.326 271.415 575.711C271.832 576.095 272.356 576.345 272.918 576.426C273.479 576.507 274.053 576.416 274.562 576.166C275.071 575.915 275.492 575.515 275.77 575.02L283.52 561.28C287.45 559.69 291.35 558.05 295.18 556.39L297.06 563.39C297.209 563.947 297.527 564.444 297.968 564.815C298.41 565.185 298.955 565.411 299.529 565.461C300.103 565.511 300.679 565.383 301.178 565.095C301.678 564.807 302.076 564.373 302.32 563.85L308.56 550.45C312.74 548.53 316.8 546.62 320.68 544.75L322.2 550.41C322.351 550.966 322.669 551.463 323.111 551.832C323.553 552.201 324.099 552.426 324.673 552.475C325.247 552.524 325.822 552.395 326.321 552.107C326.819 551.818 327.217 551.383 327.46 550.86L333.16 538.62C348.7 530.82 351.53 529.03 353.03 528.18C353.601 527.888 354.039 527.39 354.258 526.787C354.477 526.184 354.46 525.521 354.21 524.93Z" fill="#7209B7"/>
<path d="M473.27 489.66C472.802 489.466 472.286 489.421 471.792 489.532C471.297 489.643 470.85 489.904 470.51 490.28C470.42 490.37 461.8 499.71 443.04 508.44C425.7 516.51 395.89 525.7 352.4 523.65C352.037 523.633 351.675 523.696 351.34 523.836C351.004 523.975 350.704 524.188 350.461 524.458C350.218 524.728 350.038 525.048 349.934 525.396C349.83 525.744 349.805 526.111 349.86 526.47C349.961 527.041 350.256 527.56 350.695 527.939C351.134 528.318 351.69 528.534 352.27 528.55C356.15 528.73 359.91 528.82 363.58 528.83L365.3 540.4C365.392 540.994 365.667 541.544 366.085 541.975C366.503 542.406 367.045 542.697 367.636 542.806C368.226 542.916 368.836 542.84 369.382 542.588C369.927 542.336 370.381 541.921 370.68 541.4L378.12 528.45C383.47 528.15 388.55 527.68 393.38 527.08L396.07 537.08C396.225 537.655 396.552 538.168 397.009 538.55C397.465 538.933 398.028 539.165 398.621 539.216C399.213 539.268 399.808 539.135 400.323 538.837C400.838 538.539 401.249 538.09 401.5 537.55L407.42 524.83C411.49 524.03 415.33 523.14 418.94 522.19L422.12 531.74C422.311 532.309 422.674 532.805 423.159 533.159C423.644 533.513 424.227 533.708 424.827 533.717C425.427 533.725 426.015 533.548 426.51 533.208C427.005 532.868 427.382 532.384 427.59 531.82L432.65 518C437.21 516.37 441.26 514.69 444.83 513L446.36 518.71C446.515 519.285 446.842 519.798 447.299 520.18C447.755 520.563 448.318 520.795 448.911 520.846C449.503 520.898 450.098 520.765 450.613 520.467C451.128 520.169 451.539 519.72 451.79 519.18L457.91 506.04C463.299 502.832 468.328 499.053 472.91 494.77" fill="#7209B7"/>
<path d="M1110.4 545.61C1110.29 545.297 1110.11 545.01 1109.89 544.766C1109.66 544.522 1109.39 544.327 1109.08 544.192C1108.78 544.057 1108.45 543.986 1108.12 543.982C1107.79 543.978 1107.46 544.042 1107.15 544.17C1068.63 560.24 1028.15 552.17 986.85 520.26C955.79 496.26 935.96 467.01 935.76 466.72C935.398 466.18 934.836 465.807 934.199 465.681C933.561 465.555 932.9 465.688 932.36 466.05C931.82 466.412 931.447 466.974 931.321 467.611C931.195 468.249 931.328 468.91 931.69 469.45C936.704 476.577 942.112 483.418 947.89 489.94L952.83 513.41C952.949 513.979 953.237 514.5 953.657 514.903C954.076 515.306 954.607 515.573 955.181 515.669C955.755 515.765 956.344 515.686 956.872 515.441C957.4 515.197 957.842 514.8 958.14 514.3L963.08 506C967.24 510.05 971.74 514.18 976.57 518.24L981.8 536.32C981.955 536.853 982.26 537.331 982.679 537.695C983.099 538.059 983.614 538.295 984.163 538.374C984.713 538.453 985.274 538.372 985.779 538.141C986.283 537.91 986.711 537.538 987.01 537.07L991.61 529.85C995.73 532.737 999.853 535.403 1003.98 537.85L1011.23 558.18C1011.42 558.7 1011.75 559.156 1012.19 559.494C1012.62 559.831 1013.15 560.037 1013.7 560.085C1014.25 560.133 1014.8 560.023 1015.29 559.767C1015.78 559.511 1016.19 559.12 1016.46 558.64L1022.84 547.39C1026.8 549.05 1030.76 550.497 1034.71 551.73L1044.07 568.18C1044.35 568.669 1044.77 569.065 1045.27 569.32C1045.77 569.575 1046.34 569.677 1046.9 569.615C1047.46 569.552 1047.99 569.327 1048.42 568.967C1048.86 568.608 1049.17 568.129 1049.34 567.59L1052.89 555.91C1057.96 556.653 1063.08 557.03 1068.21 557.04H1069.45L1079.58 570.21C1079.91 570.631 1080.35 570.953 1080.85 571.139C1081.35 571.326 1081.89 571.369 1082.42 571.266C1082.94 571.162 1083.43 570.915 1083.82 570.552C1084.21 570.189 1084.5 569.725 1084.64 569.21L1088.75 554.96C1095.66 553.556 1102.41 551.48 1108.91 548.76C1109.51 548.524 1110 548.066 1110.28 547.481C1110.56 546.895 1110.6 546.226 1110.4 545.61Z" fill="#7209B7"/>
<path d="M75.3601 708.44V609.59" stroke="#FE7624" stroke-width="6" stroke-linecap="round" stroke-linejoin="round"/>
<path d="M195.74 575.65V706.84" stroke="#FE7624" stroke-width="6" stroke-linecap="round" stroke-linejoin="round"/>
<path d="M352.33 525.82V706.64" stroke="#FE7624" stroke-width="6" stroke-linecap="round" stroke-linejoin="round"/>
<path d="M1108.37 546.05V708.44" stroke="#FE7624" stroke-width="6" stroke-linecap="round" stroke-linejoin="round"/>
<path d="M924.36 454.1L562.36 456.45C559.642 456.407 556.963 457.09 554.598 458.43C552.233 459.77 550.269 461.717 548.91 464.07L432.18 676.6L135.4 676.8C135.4 676.8 130.29 706.57 173.03 708.43L813.03 707.6L938 473.1C942.75 464.23 935.41 454 924.36 454.1Z" fill="#FE7624"/>
<path d="M469.36 675.761L775 674.451L869.56 490.171C873.23 483.111 868.38 474.461 860.8 474.541L583.02 477.911L469.36 675.761Z" fill="white"/>
<path d="M784.39 707.601L908.17 476.311C912.89 467.431 905.55 457.231 894.5 457.311" stroke="white" stroke-width="6" stroke-linecap="round" stroke-linejoin="round"/>
<path d="M485.7 548.42L519.2 610.05C519.561 610.675 520.118 611.164 520.785 611.44C521.452 611.716 522.192 611.764 522.889 611.577C523.586 611.391 524.202 610.979 524.642 610.406C525.081 609.834 525.32 609.132 525.32 608.41L523.08 580.41C523.08 580.41 542.67 647.86 569.55 649.54C596.43 651.22 622.28 578.54 622.28 578.54L615.22 609C615.22 609.722 615.458 610.424 615.898 610.996C616.338 611.569 616.954 611.981 617.651 612.167C618.348 612.354 619.088 612.306 619.755 612.03C620.422 611.754 620.979 611.265 621.34 610.64L657.14 548.41" fill="#7209B7"/>
<path d="M443.8 310.24C443.8 310.24 363.93 418.44 374.2 515.24H550.49V308L443.8 310.24Z" fill="#7209B7"/>
<path d="M695 310.24C695 310.24 774.87 418.44 764.6 515.24H588.33V308L695 310.24Z" fill="#7209B7"/>
<path d="M641.34 515.24C709.04 393.53 701.67 296.92 681.9 230.74C662.13 164.56 615.72 90.7402 571.6 90.7402C527.48 90.7402 481.08 164.52 461.3 230.74C441.52 296.96 433.15 393.53 500.85 515.24L481.92 556H660.39L641.39 515.25L641.34 515.24Z" fill="white" stroke="#2E186A" stroke-width="6" stroke-linecap="round" stroke-linejoin="round"/>
<path d="M571.6 341.09C599.463 341.09 622.05 314.227 622.05 281.09C622.05 247.953 599.463 221.09 571.6 221.09C543.737 221.09 521.15 247.953 521.15 281.09C521.15 314.227 543.737 341.09 571.6 341.09Z" fill="#7209B7"/>
<path d="M571.6 368.13C576.245 368.13 580.01 363.653 580.01 358.13C580.01 352.608 576.245 348.13 571.6 348.13C566.955 348.13 563.19 352.608 563.19 358.13C563.19 363.653 566.955 368.13 571.6 368.13Z" fill="#7209B7"/>
<path d="M603.95 368.13C608.595 368.13 612.36 363.653 612.36 358.13C612.36 352.608 608.595 348.13 603.95 348.13C599.305 348.13 595.54 352.608 595.54 358.13C595.54 363.653 599.305 368.13 603.95 368.13Z" fill="#7209B7"/>
<path d="M536.65 368.13C541.295 368.13 545.06 363.653 545.06 358.13C545.06 352.608 541.295 348.13 536.65 348.13C532.005 348.13 528.24 352.608 528.24 358.13C528.24 363.653 532.005 368.13 536.65 368.13Z" fill="#7209B7"/>
<path d="M571.6 320.5C592.62 320.5 609.66 300.237 609.66 275.24C609.66 250.244 592.62 229.98 571.6 229.98C550.58 229.98 533.54 250.244 533.54 275.24C533.54 300.237 550.58 320.5 571.6 320.5Z" fill="white" stroke="#2E186A" stroke-width="6" stroke-linecap="round" stroke-linejoin="round"/>
<path d="M580.5 89.0002V18.1302C580.5 17.9102 580.5 17.6902 580.5 17.4802C581.7 15.8407 582.423 13.9006 582.589 11.8752C582.754 9.84977 582.354 7.8182 581.435 6.00584C580.516 4.19348 579.113 2.67117 577.381 1.60777C575.649 0.544367 573.657 -0.0185547 571.625 -0.0185547C569.593 -0.0185547 567.6 0.544367 565.869 1.60777C564.137 2.67117 562.734 4.19348 561.815 6.00584C560.895 7.8182 560.496 9.84977 560.661 11.8752C560.826 13.9006 561.549 15.8407 562.75 17.4802C562.75 17.6902 562.75 17.9102 562.75 18.1302V88.8902C544.25 92.6802 525.75 108.19 508.86 128.95C530.809 123.994 553.351 122.186 575.81 123.58C596.419 124.663 616.888 127.602 636.97 132.36C619.46 110 599.89 93.2202 580.5 89.0002Z" fill="#7209B7"/>
<path d="M653.73 169.27C627.447 160.146 599.944 155.019 572.14 154.06C537.35 152.73 510.92 160.52 489.2 169.06C479.884 186.224 472.146 204.197 466.08 222.76C492.08 210.09 523.94 196.7 572.88 197.59C619.34 198.43 651.35 208.65 675.63 219.47C669.765 202.147 662.439 185.353 653.73 169.27V169.27Z" fill="#7209B7"/>
<path d="M638.65 514.77C641.87 508.983 644.923 503.25 647.81 497.57C632.48 491.33 610.5 486.2 571.42 486.57C531.89 486.24 509.82 491.57 494.53 497.89C497.39 503.49 500.407 509.157 503.58 514.89C503.58 514.89 538.28 508.13 571.42 508.41C604 508.07 638.65 514.77 638.65 514.77Z" fill="#7209B7"/>
<path d="M823.1 674.45H665.88C665.88 674.45 643.25 654.15 653.64 637.55C664.03 620.95 691.35 616.96 700.2 633.71C700.2 633.71 704.06 601.61 737.01 604.08C769.96 606.55 767.37 640.87 767.37 640.87C767.37 640.87 809.08 611.34 807.97 657.47C808 657.47 810.63 674.41 823.1 674.45Z" fill="white" stroke="#2E186A" stroke-width="6" stroke-linecap="round" stroke-linejoin="round"/>
<path d="M322.62 674.711H479.83C479.83 674.711 502.47 654.421 492.07 637.811C481.67 621.201 454.37 617.221 445.51 633.971C445.51 633.971 441.66 601.881 408.71 604.341C375.76 606.801 378.34 641.131 378.34 641.131C378.34 641.131 336.64 611.611 337.75 657.741C337.75 657.741 335.08 674.671 322.62 674.711Z" fill="white" stroke="#2E186A" stroke-width="6" stroke-linecap="round" stroke-linejoin="round"/>
<path d="M3 708.44H1244" stroke="#2E186A" stroke-width="6" stroke-linecap="round" stroke-linejoin="round"/>
</svg>
