<svg width="1663" height="505" viewBox="0 0 1663 505" fill="none" xmlns="http://www.w3.org/2000/svg">
<g clip-path="url(#clip0)">
<path d="M530.15 498.46C527.02 461.91 501.54 409.4 495.84 359.07C534.24 323.14 492.73 218.5 469.84 217.37C446.76 213.13 426.76 208.89 389.84 207.6C344.25 206.01 303.01 211.49 287.74 213.69C230.67 241.94 199.62 407.69 237.23 440.38C244.35 446.57 255.82 452.77 269.87 458.55C268.67 472.55 267.87 486.55 267.87 499.55L530.15 498.46Z" fill="#7209B7"/>
<path d="M347.37 213.29L355.62 163.65L417.62 186.92L420 222.2C411.62 283.8 345.55 224.21 347.37 213.29Z" fill="white" stroke="#7209B7" stroke-width="6" stroke-linecap="round" stroke-linejoin="round"/>
<path d="M433.55 70.3101C433.55 70.3101 386 100.11 409 128.25C409 128.25 419.25 140.01 427.74 137.71C427.74 137.71 421.54 127.71 428.74 122.59C428.74 122.59 430.89 152.48 455.38 146.44C455.38 146.44 446.38 133.19 448.85 117.34C453.9 84.2601 446.3 64.3801 433.55 70.3101Z" fill="#7209B7"/>
<path d="M335.06 117.42C335.06 117.42 326 59.07 385 49C390.5 48.06 428.22 42.41 435.09 73.69C439.68 94.59 440.55 117.27 439.99 134.89C439.99 134.99 439.42 168.16 426.31 186.59C413.2 205.02 384.15 203.3 368.79 194.22C353.43 185.14 350.62 180.41 346.32 169.64C342.02 158.87 335.11 117.52 335.11 117.52L335.06 117.42Z" fill="white" stroke="#7209B7" stroke-width="6" stroke-linecap="round" stroke-linejoin="round"/>
<path d="M415.71 121.98L421.17 148.88H411.1" stroke="#7209B7" stroke-width="6" stroke-linecap="round" stroke-linejoin="round"/>
<path d="M431.038 119.73C431.063 117.189 429.753 115.117 428.113 115.101C426.473 115.085 425.123 117.131 425.098 119.671C425.073 122.212 426.383 124.284 428.023 124.3C429.663 124.316 431.013 122.27 431.038 119.73Z" fill="#7209B7"/>
<path d="M402.595 120.576C403.095 118.085 402.196 115.805 400.588 115.482C398.979 115.16 397.271 116.917 396.771 119.408C396.272 121.899 397.17 124.18 398.779 124.502C400.387 124.825 402.096 123.067 402.595 120.576Z" fill="#7209B7"/>
<path d="M384.07 102.13C385.51 100.163 387.453 98.6196 389.694 97.6608C391.935 96.702 394.393 96.3632 396.81 96.68" stroke="#7209B7" stroke-width="6" stroke-linecap="round" stroke-linejoin="round"/>
<path d="M422.77 94.4302C422.77 94.4302 433 89.8402 437.5 96.0002" stroke="#7209B7" stroke-width="6" stroke-linecap="round" stroke-linejoin="round"/>
<path d="M381.36 73.9301C381.36 73.9301 403.66 152.11 351.66 160.15C351.66 160.15 321.37 165.5 314.45 154.8C314.45 154.8 336.4 143.14 333.64 130.61C333.64 130.61 308.96 157.67 287.48 138.25C287.48 138.25 323.33 132.25 320.15 100.01C317.87 76.8801 373.37 55.1701 381.36 73.9301Z" fill="#7209B7"/>
<path d="M286.32 84.9401L318 80.1501C321.28 58.8201 333.7 28.2801 377.42 23.2101C445.73 15.2701 447.77 81.7501 447.77 81.7501L289.43 105.35C288.09 105.553 286.723 105.49 285.407 105.164C284.091 104.839 282.853 104.258 281.761 103.454C280.67 102.649 279.748 101.638 279.048 100.478C278.348 99.3173 277.883 98.0302 277.68 96.6901C277.477 95.3499 277.54 93.9829 277.866 92.6672C278.191 91.3514 278.772 90.1126 279.577 89.0215C280.381 87.9304 281.392 87.0084 282.552 86.3081C283.713 85.6078 285 85.143 286.34 84.9401H286.32Z" fill="#FE7624"/>
<path d="M394.2 155.73C394.2 155.73 398.52 165.85 412.79 163.6" stroke="#7209B7" stroke-width="6" stroke-linecap="round" stroke-linejoin="round"/>
<path d="M548.89 278.34V244.06C548.89 237.358 546.228 230.93 541.488 226.191C536.749 221.452 530.322 218.79 523.62 218.79H513.76C513.865 227.112 512.316 235.373 509.204 243.092C506.092 250.811 501.478 257.835 495.63 263.758C489.782 269.68 482.817 274.382 475.137 277.591C467.458 280.8 459.218 282.453 450.895 282.453C442.572 282.453 434.332 280.8 426.653 277.591C418.973 274.382 412.008 269.68 406.16 263.758C400.312 257.835 395.698 250.811 392.586 243.092C389.473 235.373 387.925 227.112 388.03 218.79H378.17C371.469 218.793 365.043 221.456 360.304 226.194C355.566 230.933 352.903 237.359 352.9 244.06V426.76C352.908 433.457 355.574 439.877 360.312 444.609C365.05 449.342 371.473 452 378.17 452H523.62C530.322 452 536.749 449.338 541.488 444.599C546.228 439.86 548.89 433.432 548.89 426.73V404.07C565.425 403.861 581.213 397.146 592.832 385.38C604.452 373.613 610.967 357.742 610.967 341.205C610.967 324.668 604.452 308.797 592.832 297.03C581.213 285.264 565.425 278.549 548.89 278.34V278.34Z" fill="#FEBA91"/>
<path d="M531.62 443.46C531.48 443.03 509.54 417.46 508.8 418C508.06 418.54 478 432 477.34 433.05C476.68 434.1 475.53 440.14 478.56 445.78C481.59 451.42 484.92 464.28 498.51 465.29C512.1 466.3 531.62 443.46 531.62 443.46Z" fill="white"/>
<path d="M491.5 423.9C491.5 423.9 488.94 406.23 493 402C497.06 397.77 520 437 527.89 439.72" fill="white"/>
<path d="M491.5 423.9C491.5 423.9 488.94 406.23 493 402C497.06 397.77 520 437 527.89 439.72" stroke="#7209B7" stroke-width="6" stroke-linecap="round" stroke-linejoin="round"/>
<path d="M479.32 427C479.32 427 473.86 414.1 481.09 407.86C488.32 401.62 506.15 436.92 513.98 441.49" fill="white"/>
<path d="M479.32 427C479.32 427 473.86 414.1 481.09 407.86C488.32 401.62 506.15 436.92 513.98 441.49" stroke="#7209B7" stroke-width="6" stroke-linecap="round" stroke-linejoin="round"/>
<path d="M476.08 441.81C476.08 441.81 466.84 418.7 473.28 413.81C479.72 408.92 490.16 438.89 502.68 445.81" fill="white"/>
<path d="M476.08 441.81C476.08 441.81 466.84 418.7 473.28 413.81C479.72 408.92 490.16 438.89 502.68 445.81" stroke="#7209B7" stroke-width="6" stroke-linecap="round" stroke-linejoin="round"/>
<path d="M526.26 438.84C527.291 433.859 526.778 428.682 524.79 424C522.52 418.65 519.79 411.37 519.55 406.72C519.1 398.62 532.35 402.42 532.9 407.45C533.45 412.48 535.97 412.19 541.77 417.31C547.57 422.43 546.51 442.85 546.51 442.85C546.51 442.85 551.61 453.32 535.17 465.85C518.73 478.38 501.17 468.63 501.17 468.63C501.17 468.63 469.4 456.89 469.41 434C469.42 411.11 477.84 444.48 493.74 453.87" fill="white"/>
<path d="M526.26 438.84C527.291 433.859 526.778 428.682 524.79 424C522.52 418.65 519.79 411.37 519.55 406.72C519.1 398.62 532.35 402.42 532.9 407.45C533.45 412.48 535.97 412.19 541.77 417.31C547.57 422.43 546.51 442.85 546.51 442.85C546.51 442.85 551.61 453.32 535.17 465.85C518.73 478.38 501.17 468.63 501.17 468.63C501.17 468.63 469.4 456.89 469.41 434C469.42 411.11 477.84 444.48 493.74 453.87" stroke="#7209B7" stroke-width="6" stroke-linecap="round" stroke-linejoin="round"/>
<path d="M354.37 443.46C354.52 443.03 376.45 417.46 377.19 418C377.93 418.54 407.99 432 408.65 433.05C409.31 434.1 410.47 440.14 407.43 445.78C404.39 451.42 401.07 464.28 387.48 465.29C373.89 466.3 354.37 443.46 354.37 443.46Z" fill="white"/>
<path d="M394.5 423.9C394.5 423.9 397.05 406.23 393 402C388.95 397.77 366 437 358.11 439.72" fill="white"/>
<path d="M394.5 423.9C394.5 423.9 397.05 406.23 393 402C388.95 397.77 366 437 358.11 439.72" stroke="#7209B7" stroke-width="6" stroke-linecap="round" stroke-linejoin="round"/>
<path d="M406.67 427C406.67 427 412.14 414.1 404.9 407.86C397.66 401.62 379.84 436.91 372 441.48" fill="white"/>
<path d="M406.67 427C406.67 427 412.14 414.1 404.9 407.86C397.66 401.62 379.84 436.91 372 441.48" stroke="#7209B7" stroke-width="6" stroke-linecap="round" stroke-linejoin="round"/>
<path d="M409.91 441.81C409.91 441.81 419.15 418.7 412.72 413.81C406.29 408.92 395.83 438.89 383.32 445.81" fill="white"/>
<path d="M409.91 441.81C409.91 441.81 419.15 418.7 412.72 413.81C406.29 408.92 395.83 438.89 383.32 445.81" stroke="#7209B7" stroke-width="6" stroke-linecap="round" stroke-linejoin="round"/>
<path d="M359.73 438.84C358.704 433.859 359.217 428.683 361.2 424C363.47 418.65 366.2 411.37 366.44 406.72C366.89 398.62 353.65 402.42 353.09 407.45C352.53 412.48 350.02 412.19 344.22 417.31C338.42 422.43 339.48 442.85 339.48 442.85C339.48 442.85 334.38 453.32 350.82 465.85C367.26 478.38 384.82 468.63 384.82 468.63C384.82 468.63 416.6 456.89 416.59 434C416.58 411.11 408.15 444.48 392.25 453.87" fill="white"/>
<path d="M359.73 438.84C358.704 433.859 359.217 428.683 361.2 424C363.47 418.65 366.2 411.37 366.44 406.72C366.89 398.62 353.65 402.42 353.09 407.45C352.53 412.48 350.02 412.19 344.22 417.31C338.42 422.43 339.48 442.85 339.48 442.85C339.48 442.85 334.38 453.32 350.82 465.85C367.26 478.38 384.82 468.63 384.82 468.63C384.82 468.63 416.6 456.89 416.59 434C416.58 411.11 408.15 444.48 392.25 453.87" stroke="#7209B7" stroke-width="6" stroke-linecap="round" stroke-linejoin="round"/>
<path d="M884.87 213.53L818.05 203L810.87 180.3C823.34 172.36 865.39 176.14 898.13 188.23L884.87 213.58" fill="#7209B7"/>
<path d="M994.45 339.88L944.73 223.67C941.54 216.47 934.84 211.14 926.73 208.99C922.542 207.05 918.048 205.855 913.45 205.46L896.59 204.05L898.1 188.18C898.1 188.18 895.75 193.89 877.2 197.37C852.12 202.08 810.84 180.25 810.84 180.25V204.85L785.27 204.12C774.27 203.8 752.92 202.93 740.56 227.41L680.45 378.33C669.8 397.82 675.31 426.67 693.01 441.53L728.11 461L724.85 500L990.48 499.09L989 464.48C1069.69 414.37 994.45 339.88 994.45 339.88Z" fill="#81C784"/>
<path d="M777.1 383.43C777.1 383.43 750.74 350.83 710.5 379.62" stroke="white" stroke-width="6" stroke-linecap="round" stroke-linejoin="round"/>
<path d="M777.1 377.7C776.67 376.83 761.1 341.53 717.35 364.27" stroke="white" stroke-width="6" stroke-linecap="round" stroke-linejoin="round"/>
<path d="M932.27 383.43C932.27 383.43 956.27 340.67 1002.13 370.24" stroke="white" stroke-width="6" stroke-linecap="round" stroke-linejoin="round"/>
<path d="M929.28 375.32C929.28 375.32 942.1 342.19 984.58 349.94" stroke="white" stroke-width="6" stroke-linecap="round" stroke-linejoin="round"/>
<path d="M819.93 202.09V134.93L878.89 170.46L877.51 206.54L819.93 202.09Z" fill="white" stroke="#7209B7" stroke-width="6" stroke-linecap="round" stroke-linejoin="round"/>
<path d="M898 62.9301C874 46.3101 852.36 40.2201 818.5 83.6201L813.87 112.19C799.64 107.9 792.14 114.84 795.24 127.25C798.57 140.62 806.32 146.63 819.24 143.15C825.41 157.15 837.09 173.26 858.8 177.96C892.8 185.33 900.65 164.29 904.44 156.02C908.23 147.75 922 79.5601 898 62.9301Z" fill="white" stroke="#7209B7" stroke-width="6" stroke-linecap="round" stroke-linejoin="round"/>
<path d="M886.68 115.27L889.62 140.85L880.06 140.61" stroke="#7209B7" stroke-width="6" stroke-linecap="round" stroke-linejoin="round"/>
<path d="M897.79 119.61C899.364 119.61 900.64 117.636 900.64 115.2C900.64 112.764 899.364 110.79 897.79 110.79C896.216 110.79 894.94 112.764 894.94 115.2C894.94 117.636 896.216 119.61 897.79 119.61Z" fill="#7209B7"/>
<path d="M870.32 119.13C871.894 119.13 873.17 117.156 873.17 114.72C873.17 112.284 871.894 110.31 870.32 110.31C868.746 110.31 867.47 112.284 867.47 114.72C867.47 117.156 868.746 119.13 870.32 119.13Z" fill="#7209B7"/>
<path d="M895.7 89.51C895.7 89.51 903.62 87.45 905.6 93.92" stroke="#7209B7" stroke-width="6" stroke-linecap="round" stroke-linejoin="round"/>
<path d="M867.91 146.09C867.91 146.09 877.08 149.42 884.84 148.09C884.84 148.09 881.93 161.36 874.45 159.75C866.97 158.14 867.91 146.09 867.91 146.09Z" fill="#7209B7"/>
<path d="M772.79 32.25C757.54 2.40004 733 -0.209959 704.68 5.42004C676.36 11.05 660.55 49.12 659.56 52.65C648.01 93.82 663.3 137.83 697.26 163.81C701.03 166.68 704.8 169.6 708.41 172.42C728.41 188.05 684.16 201.42 684.16 201.42C768.85 208.21 750.38 123.42 748.58 115.94C775.68 105.59 787 60 772.79 32.25Z" fill="#7209B7"/>
<path d="M761.762 54.9105C754.847 52.2142 747.055 55.6326 744.36 62.5457C741.665 69.4588 745.086 77.2488 752.002 79.9451L801.046 99.0666C807.962 101.763 815.753 98.3446 818.448 91.4315C821.143 84.5184 817.722 76.7284 810.806 74.0321L761.762 54.9105Z" fill="#FE7624"/>
<path d="M921.79 92.1201C921.49 71.3401 916.5 53.1201 903.95 41.1201C901.969 38.8351 899.573 36.9453 896.89 35.5501C886.65 28.9201 872.75 25.3701 854.31 26.0301C853.917 26.055 853.533 26.1569 853.18 26.3301C850.291 26.5938 847.42 27.0212 844.58 27.6101C843.022 27.8556 841.484 28.2166 839.98 28.6901C834.894 30.0669 829.938 31.8872 825.17 34.1301C783.81 51.9201 767.53 84.0001 786 128.31C795.54 151.15 807.92 158.5 819.89 158.52V144.69C818.89 142.49 817.18 143.34 817.18 143.34C804.3 146.82 798.54 140.62 795.18 127.25C793.56 120.79 794.83 115.82 798.41 113.14L798.69 112.93C798.83 112.83 798.98 112.74 799.13 112.65L799.42 112.47L799.91 112.21L800.2 112.08C800.379 111.99 800.562 111.91 800.75 111.84L801.02 111.74C801.22 111.67 801.43 111.59 801.64 111.53H801.83C802.996 111.199 804.198 111.014 805.41 110.98H805.5C805.8 110.98 806.11 110.98 806.43 110.98H806.61C806.92 110.98 807.24 110.98 807.55 110.98H807.76L808.76 111.08H808.91C810.573 111.309 812.215 111.67 813.82 112.16V112.16C814.92 112.49 814.11 113.01 815.3 113.48L818.3 113.27C819.3 113.27 820.38 113.17 821.48 113.04C847.59 109.9 888.15 91.2201 902.6 67.2201C912.8 79.5801 913.91 103.95 912.04 124.48C918.43 114.9 921.824 103.635 921.79 92.1201V92.1201Z" fill="#7209B7"/>
<path d="M859.21 89.3999C860.649 87.5542 862.556 86.1286 864.734 85.272C866.912 84.4153 869.279 84.1591 871.59 84.5299" stroke="#FFFDFD" stroke-width="6" stroke-linecap="round" stroke-linejoin="round"/>
<path d="M939.43 274L933.14 240.62C932.539 237.384 931.306 234.298 929.509 231.54C927.713 228.782 925.39 226.405 922.674 224.547C919.957 222.689 916.9 221.386 913.678 220.712C910.457 220.038 907.134 220.007 903.9 220.62L894.3 222.43C892.836 214.343 889.787 206.625 885.328 199.722C880.868 192.819 875.087 186.866 868.317 182.207C861.546 177.548 853.921 174.275 845.88 172.576C837.839 170.878 829.541 170.787 821.465 172.31C813.389 173.832 805.694 176.938 798.823 181.448C791.953 185.958 786.043 191.783 781.434 198.587C776.824 205.392 773.607 213.041 771.968 221.094C770.328 229.147 770.298 237.445 771.88 245.51L762.28 247.32C759.044 247.921 755.958 249.154 753.2 250.95C750.442 252.746 748.065 255.07 746.207 257.786C744.349 260.503 743.045 263.56 742.371 266.782C741.697 270.003 741.666 273.326 742.28 276.56L748.57 309.94C764.748 307.013 781.428 310.6 794.972 319.92C808.517 329.241 817.827 343.538 820.873 359.694C823.919 375.851 820.454 392.557 811.233 406.169C802.012 419.781 787.784 429.196 771.65 432.36L775.82 454.45C776.421 457.686 777.654 460.772 779.45 463.53C781.246 466.288 783.569 468.665 786.286 470.523C789.003 472.381 792.06 473.685 795.281 474.359C798.503 475.032 801.826 475.064 805.06 474.45L946.68 447.75C949.916 447.149 953.002 445.916 955.76 444.12C958.518 442.324 960.895 440.001 962.753 437.284C964.611 434.567 965.914 431.51 966.588 428.289C967.262 425.067 967.293 421.744 966.68 418.51L962.52 396.41C954.482 397.926 946.225 397.844 938.219 396.169C930.213 394.494 922.615 391.258 915.86 386.647C909.104 382.036 903.323 376.139 898.847 369.293C894.37 362.448 891.286 354.788 889.77 346.75C888.254 338.712 888.336 330.455 890.011 322.449C891.686 314.443 894.921 306.846 899.533 300.09C904.144 293.335 910.041 287.554 916.887 283.077C923.732 278.601 931.392 275.516 939.43 274V274Z" fill="#FEBA91"/>
<path d="M805.28 451.06C818.79 460.65 820.55 453.38 816.59 448.73C811.59 442.92 788.1 424.39 788.1 424.39C788.1 424.39 806.97 430.01 811.59 419.39C816.21 408.77 811.16 406.68 804.05 410.29C796.94 413.9 774.85 400.88 774.85 400.88L767.61 394.23C767.61 394.23 743.31 386.41 737.06 413.29C735.646 417.705 735.387 422.408 736.308 426.951C737.229 431.494 739.299 435.725 742.32 439.24C745.21 442.51 755.22 455.54 786.95 471.39C786.95 471.39 801.83 476.92 790.69 466.17C787.926 463.519 784.99 461.053 781.9 458.79" fill="white"/>
<path d="M805.28 451.06C818.79 460.65 820.55 453.38 816.59 448.73C811.59 442.92 788.1 424.39 788.1 424.39C788.1 424.39 806.97 430.01 811.59 419.39C816.21 408.77 811.16 406.68 804.05 410.29C796.94 413.9 774.85 400.88 774.85 400.88L767.61 394.23C767.61 394.23 743.31 386.41 737.06 413.29C735.646 417.705 735.387 422.408 736.308 426.951C737.229 431.494 739.299 435.725 742.32 439.24C745.21 442.51 755.22 455.54 786.95 471.39C786.95 471.39 801.83 476.92 790.69 466.17C787.926 463.519 784.99 461.053 781.9 458.79" stroke="#7209B7" stroke-width="6" stroke-linecap="round" stroke-linejoin="round"/>
<path d="M784.16 436.62C788.89 440.13 808.65 451.23 813.37 458.31C818.09 465.39 812.18 467.75 795.29 455.54" fill="white"/>
<path d="M784.16 436.62C788.89 440.13 808.65 451.23 813.37 458.31C818.09 465.39 812.18 467.75 795.29 455.54" stroke="#7209B7" stroke-width="6" stroke-linecap="round" stroke-linejoin="round"/>
<path d="M776.85 444.22C777.37 445.08 809.78 462.62 807.68 467.22C805.95 470.98 801.33 471.22 783.41 459.82L769.02 449.82" fill="white"/>
<path d="M776.85 444.22C777.37 445.08 809.78 462.62 807.68 467.22C805.95 470.98 801.33 471.22 783.41 459.82L769.02 449.82" stroke="#7209B7" stroke-width="6" stroke-linecap="round" stroke-linejoin="round"/>
<path d="M923.59 421.06C907.84 426.18 908.33 418.72 913.49 415.46C920 411.39 948 400.74 948 400.74C948 400.74 928.31 400.46 927.08 388.91C925.85 377.36 931.29 376.91 937 382.47C942.71 388.03 967.68 382.22 967.68 382.22L976.58 378.03C976.58 378.03 1002.1 377.81 1000.04 405.33C1000.07 409.968 998.915 414.536 996.679 418.599C994.444 422.662 991.204 426.085 987.27 428.54C983.54 430.8 970.1 440.24 935.08 445.89C935.08 445.89 919.22 446.73 933.08 439.79C936.512 438.087 940.053 436.613 943.68 435.38" fill="white"/>
<path d="M923.59 421.06C907.84 426.18 908.33 418.72 913.49 415.46C920 411.39 948 400.74 948 400.74C948 400.74 928.31 400.46 927.08 388.91C925.85 377.36 931.29 376.91 937 382.47C942.71 388.03 967.68 382.22 967.68 382.22L976.58 378.03C976.58 378.03 1002.1 377.81 1000.04 405.33C1000.07 409.968 998.915 414.536 996.679 418.599C994.444 422.662 991.204 426.085 987.27 428.54C983.54 430.8 970.1 440.24 935.08 445.89C935.08 445.89 919.22 446.73 933.08 439.79C936.512 438.087 940.053 436.613 943.68 435.38" stroke="#7209B7" stroke-width="6" stroke-linecap="round" stroke-linejoin="round"/>
<path d="M948.06 413.58C942.5 415.52 920.32 420.21 913.71 425.58C907.1 430.95 912.03 434.94 931.79 428.34" fill="white"/>
<path d="M948.06 413.58C942.5 415.52 920.32 420.21 913.71 425.58C907.1 430.95 912.03 434.94 931.79 428.34" stroke="#7209B7" stroke-width="6" stroke-linecap="round" stroke-linejoin="round"/>
<path d="M952.77 423C952.01 423.66 915.85 430.73 916.48 435.74C917 439.84 921.36 441.4 941.85 435.92L958.59 430.63" fill="white"/>
<path d="M952.77 423C952.01 423.66 915.85 430.73 916.48 435.74C917 439.84 921.36 441.4 941.85 435.92L958.59 430.63" stroke="#7209B7" stroke-width="6" stroke-linecap="round" stroke-linejoin="round"/>
<path d="M1476.83 289C1477.09 234.38 1397.43 215.6 1397.43 215.6C1403.43 188.46 1400.68 121.44 1287.15 141.94C1229 152 1212.55 182.53 1224.91 207.28C1202.29 218.5 1145.83 299.43 1145.83 299.43L1146.89 368.99C1142.58 368.092 1138.2 367.629 1133.8 367.61C1116.64 367.541 1100.15 374.291 1087.96 386.377C1075.77 398.463 1068.88 414.895 1068.8 432.06C1068.65 467.81 1100.54 499.79 1136.29 499.94C1140.52 499.961 1144.74 499.522 1148.88 498.63V499.95L1457.55 499.15C1457.55 499.15 1459.01 437.29 1451.64 371.63C1464.56 342 1476.74 308.86 1476.83 289Z" fill="#FE7624"/>
<path d="M1347.4 182.32L1368 193.73C1368 193.73 1314.41 216.87 1304.73 323.73C1298.44 393.16 1303.44 501.45 1303.44 501.45L1268.02 500.9C1268.02 500.9 1277.57 286.19 1262.13 251.25C1246.69 216.31 1263.72 214.11 1271.52 206.85C1279.32 199.59 1347.4 182.32 1347.4 182.32Z" fill="white"/>
<path d="M1122.26 477.63C1150.63 477.63 1173.63 454.631 1173.63 426.26C1173.63 397.889 1150.63 374.89 1122.26 374.89C1093.89 374.89 1070.89 397.889 1070.89 426.26C1070.89 454.631 1093.89 477.63 1122.26 477.63Z" fill="#7209B7"/>
<path d="M1309.68 475.3C1334.38 475.3 1354.41 455.274 1354.41 430.57C1354.41 405.866 1334.38 385.84 1309.68 385.84C1284.98 385.84 1264.95 405.866 1264.95 430.57C1264.95 455.274 1284.98 475.3 1309.68 475.3Z" fill="#7209B7"/>
<path d="M1346.37 278.8C1355.27 274.75 1383.59 242.36 1397.37 215.39C1408.87 215.22 1425.49 223.09 1432.7 228.68C1400 280.37 1346.32 278.88 1346.37 278.8Z" fill="#7209B7"/>
<path d="M1340.14 371.63C1340.14 371.63 1379.63 355.13 1409 401.18" stroke="#7209B7" stroke-width="6" stroke-linecap="round" stroke-linejoin="round"/>
<path d="M1337.3 372.18C1337.3 372.18 1368.43 340.6 1410.88 380.31" stroke="#7209B7" stroke-width="6" stroke-linecap="round" stroke-linejoin="round"/>
<path d="M1450.24 374.88C1450.24 374.88 1412.13 510.88 1312.16 482.25C1312.16 482.25 1294.4 477.82 1285.92 466.25" stroke="#7209B7" stroke-width="6" stroke-linecap="round" stroke-linejoin="round"/>
<path d="M1326.1 389C1333.77 378.981 1340.43 368.233 1346 356.91C1355.84 337.28 1368.55 305.74 1368.55 305.74" stroke="#7209B7" stroke-width="6" stroke-linecap="round" stroke-linejoin="round"/>
<path d="M1349 139L1347.47 186.39C1347.55 189.502 1346.92 192.592 1345.63 195.426C1344.34 198.26 1342.43 200.764 1340.03 202.75C1330.85 210.39 1314.03 225.46 1292.9 249.31C1292.9 249.31 1266.54 221.24 1262.09 177.41L1349 139Z" fill="white" stroke="#7209B7" stroke-width="6" stroke-linecap="round" stroke-linejoin="round"/>
<path d="M1355.43 114.62C1355.43 114.62 1376.43 115.12 1372.55 133.85C1368.67 152.58 1345.62 141.64 1345.62 141.64L1348.83 115L1355.43 114.62Z" fill="white" stroke="#7209B7" stroke-width="6" stroke-linecap="round" stroke-linejoin="round"/>
<path d="M1296.18 55.2916C1290.68 54.7259 1253.03 51.7558 1248.78 88.9048C1244.53 126.054 1248.78 167.163 1252.24 185.938C1255.69 204.712 1321.4 191.65 1325.5 190C1329.6 188.35 1336.5 181 1336.5 181L1350.93 130.415C1350.93 130.415 1355.21 61.3967 1296.18 55.2916Z" fill="white" stroke="#7209B7" stroke-width="6" stroke-linecap="round" stroke-linejoin="round"/>
<path d="M1353.56 125.65C1353.56 125.65 1363.46 110.46 1367.33 94.65C1370.96 79.78 1364.11 64.15 1350.33 57.43C1338.83 51.79 1330.26 56.13 1330.26 56.13C1330.26 56.13 1342.58 35.35 1324.26 16.87C1321.07 13.652 1317.25 11.1175 1313.04 9.42067C1308.84 7.72388 1304.33 6.90029 1299.8 7C1293.53 7.03157 1287.41 8.89254 1282.18 12.3546C1276.95 15.8167 1272.85 20.7294 1270.37 26.49C1270.37 26.49 1246.55 -17.72 1197.23 8.17C1192.23 10.78 1186.63 18.1 1183.93 23.03C1167.55 52.91 1220.93 88.62 1248.84 91.54C1279.45 94.76 1297.39 89.76 1307.29 82.31C1299.93 86.65 1308 132.5 1353.56 125.65Z" fill="#7209B7"/>
<path d="M1293.84 165.77C1293.84 165.77 1289.08 176.33 1278.16 171.83" stroke="#7209B7" stroke-width="8" stroke-linecap="round" stroke-linejoin="round"/>
<path d="M1271.48 130.02L1265.34 154.93L1278.23 156.28" stroke="#7209B7" stroke-width="8" stroke-linecap="round" stroke-linejoin="round"/>
<path d="M1262.07 126.246C1262.08 123.722 1260.77 121.67 1259.14 121.663C1257.51 121.656 1256.18 123.696 1256.17 126.22C1256.16 128.744 1257.47 130.796 1259.1 130.803C1260.73 130.81 1262.06 128.769 1262.07 126.246Z" fill="#7209B7"/>
<path d="M1290.52 125.864C1290.53 123.34 1289.22 121.289 1287.59 121.282C1285.96 121.274 1284.63 123.315 1284.62 125.839C1284.61 128.362 1285.92 130.414 1287.55 130.421C1289.18 130.428 1290.51 128.388 1290.52 125.864Z" fill="#7209B7"/>
<path d="M1302.19 109C1300.71 107.082 1298.74 105.597 1296.49 104.7C1294.24 103.803 1291.78 103.527 1289.39 103.9" stroke="#7209B7" stroke-width="8" stroke-linecap="round" stroke-linejoin="round"/>
<path d="M1262.26 103.31C1262.26 103.31 1254.08 101.14 1252 107.83" stroke="#7209B7" stroke-width="8" stroke-linecap="round" stroke-linejoin="round"/>
<path d="M1285.27 204.36L1139.15 203.73C1135.82 203.715 1132.51 204.358 1129.43 205.621C1126.34 206.883 1123.53 208.741 1121.16 211.089C1118.8 213.436 1116.91 216.227 1115.62 219.302C1114.34 222.377 1113.66 225.676 1113.65 229.01L1113.5 263.45C1096.88 263.576 1080.98 270.248 1069.24 282.021C1057.51 293.793 1050.89 309.717 1050.82 326.338C1050.75 342.96 1057.23 358.939 1068.86 370.812C1080.5 382.684 1096.34 389.492 1112.96 389.76L1112.86 412.55C1112.84 419.276 1115.49 425.734 1120.23 430.506C1124.97 435.278 1131.41 437.974 1138.14 438L1284.26 438.63C1287.59 438.644 1290.9 438.002 1293.98 436.74C1297.07 435.478 1299.87 433.621 1302.24 431.274C1304.61 428.928 1306.49 426.138 1307.78 423.064C1309.06 419.99 1309.74 416.693 1309.75 413.36L1310.54 229.82C1310.56 223.094 1307.91 216.635 1303.17 211.861C1298.44 207.087 1292 204.389 1285.27 204.36V204.36Z" fill="#FEBA91"/>
<path d="M1102.6 425.32C1102.74 424.88 1124.68 399.26 1125.42 399.86C1126.16 400.46 1156.21 413.86 1156.87 414.91C1157.53 415.96 1158.69 421.99 1155.66 427.63C1152.63 433.27 1149.3 446.14 1135.66 447.15C1122.02 448.16 1102.6 425.32 1102.6 425.32Z" fill="white"/>
<path d="M1142.72 405.75C1142.72 405.75 1145.28 388.09 1141.2 383.9C1137.12 379.71 1114.2 418.9 1106.31 421.62" fill="white"/>
<path d="M1142.72 405.75C1142.72 405.75 1145.28 388.09 1141.2 383.9C1137.12 379.71 1114.2 418.9 1106.31 421.62" stroke="#7209B7" stroke-width="6" stroke-linecap="round" stroke-linejoin="round"/>
<path d="M1154.89 408.85C1154.89 408.85 1160.36 395.94 1153.13 389.7C1145.9 383.46 1128.07 418.76 1120.24 423.33" fill="white"/>
<path d="M1154.89 408.85C1154.89 408.85 1160.36 395.94 1153.13 389.7C1145.9 383.46 1128.07 418.76 1120.24 423.33" stroke="#7209B7" stroke-width="6" stroke-linecap="round" stroke-linejoin="round"/>
<path d="M1158.14 423.67C1158.14 423.67 1167.38 400.56 1160.94 395.67C1154.5 390.78 1144.06 420.76 1131.54 427.67" fill="white"/>
<path d="M1158.14 423.67C1158.14 423.67 1167.38 400.56 1160.94 395.67C1154.5 390.78 1144.06 420.76 1131.54 427.67" stroke="#7209B7" stroke-width="6" stroke-linecap="round" stroke-linejoin="round"/>
<path d="M1108 420.7C1106.97 415.719 1107.48 410.542 1109.47 405.86C1111.74 400.5 1114.47 393.23 1114.71 388.57C1115.16 380.47 1101.91 384.28 1101.36 389.3C1100.81 394.32 1098.29 394.05 1092.48 399.16C1086.67 404.27 1087.75 424.7 1087.75 424.7C1087.75 424.7 1082.65 435.17 1099.09 447.7C1115.53 460.23 1133.09 450.48 1133.09 450.48C1133.09 450.48 1164.9 438.75 1164.89 415.86C1164.88 392.97 1156.46 426.34 1140.56 435.74" fill="white"/>
<path d="M1108 420.7C1106.97 415.719 1107.48 410.542 1109.47 405.86C1111.74 400.5 1114.47 393.23 1114.71 388.57C1115.16 380.47 1101.91 384.28 1101.36 389.3C1100.81 394.32 1098.29 394.05 1092.48 399.16C1086.67 404.27 1087.75 424.7 1087.75 424.7C1087.75 424.7 1082.65 435.17 1099.09 447.7C1115.53 460.23 1133.09 450.48 1133.09 450.48C1133.09 450.48 1164.9 438.75 1164.89 415.86C1164.88 392.97 1156.46 426.34 1140.56 435.74" stroke="#7209B7" stroke-width="6" stroke-linecap="round" stroke-linejoin="round"/>
<path d="M1307.8 428.25C1307.66 427.81 1285.73 402.19 1284.98 402.79C1284.23 403.39 1254.19 416.79 1253.53 417.79C1252.87 418.79 1251.71 424.87 1254.74 430.51C1257.77 436.15 1261.11 449.02 1274.74 450.03C1288.37 451.04 1307.8 428.25 1307.8 428.25Z" fill="white"/>
<path d="M1267.68 408.68C1267.68 408.68 1265.12 391.02 1269.2 386.83C1273.28 382.64 1296.2 421.83 1304.09 424.55" fill="white"/>
<path d="M1267.68 408.68C1267.68 408.68 1265.12 391.02 1269.2 386.83C1273.28 382.64 1296.2 421.83 1304.09 424.55" stroke="#7209B7" stroke-width="6" stroke-linecap="round" stroke-linejoin="round"/>
<path d="M1255.51 411.78C1255.51 411.78 1250.04 398.87 1257.28 392.63C1264.52 386.39 1282.28 421.69 1290.17 426.26" fill="white"/>
<path d="M1255.51 411.78C1255.51 411.78 1250.04 398.87 1257.28 392.63C1264.52 386.39 1282.28 421.69 1290.17 426.26" stroke="#7209B7" stroke-width="6" stroke-linecap="round" stroke-linejoin="round"/>
<path d="M1252.26 426.6C1252.26 426.6 1243.02 403.49 1249.46 398.6C1255.9 393.71 1266.35 423.68 1278.86 430.6" fill="white"/>
<path d="M1252.26 426.6C1252.26 426.6 1243.02 403.49 1249.46 398.6C1255.9 393.71 1266.35 423.68 1278.86 430.6" stroke="#7209B7" stroke-width="6" stroke-linecap="round" stroke-linejoin="round"/>
<path d="M1302.44 423.63C1303.47 418.649 1302.96 413.472 1300.97 408.79C1298.71 403.43 1295.97 396.16 1295.73 391.51C1295.28 383.4 1308.53 387.21 1309.09 392.23C1309.65 397.25 1312.15 396.98 1317.96 402.1C1323.77 407.22 1322.69 427.64 1322.69 427.64C1322.69 427.64 1327.79 438.11 1311.35 450.64C1294.91 463.17 1277.35 453.43 1277.35 453.43C1277.35 453.43 1245.54 441.69 1245.55 418.8C1245.56 395.91 1253.98 429.28 1269.88 438.68" fill="white"/>
<path d="M1302.44 423.63C1303.47 418.649 1302.96 413.472 1300.97 408.79C1298.71 403.43 1295.97 396.16 1295.73 391.51C1295.28 383.4 1308.53 387.21 1309.09 392.23C1309.65 397.25 1312.15 396.98 1317.96 402.1C1323.77 407.22 1322.69 427.64 1322.69 427.64C1322.69 427.64 1327.79 438.11 1311.35 450.64C1294.91 463.17 1277.35 453.43 1277.35 453.43C1277.35 453.43 1245.54 441.69 1245.55 418.8C1245.56 395.91 1253.98 429.28 1269.88 438.68" stroke="#7209B7" stroke-width="6" stroke-linecap="round" stroke-linejoin="round"/>
<path d="M3 501.46H1659.57" stroke="#7209B7" stroke-width="6" stroke-linecap="round" stroke-linejoin="round"/>
</g>
<defs>
<clipPath id="clip0">
<rect width="1662.57" height="504.46" fill="white"/>
</clipPath>
</defs>
</svg>
